<?xml version="1.0" encoding="us-ascii" standalone="no"?><svg xmlns="http://www.w3.org/2000/svg" xmlns:xlink="http://www.w3.org/1999/xlink" contentStyleType="text/css" height="1468px" preserveAspectRatio="none" style="width:3010px;height:1468px;background:#FAFAFA;" version="1.1" viewBox="0 0 3010 1468" width="3010px" zoomAndPan="magnify"><defs/><g><rect fill="#FAFAFA" height="1468" style="stroke:none;stroke-width:1.0;" width="3010" x="0" y="0"/><!--class AdminController--><g id="elem_AdminController"><rect codeLine="14" fill="#E3F2FD" height="199.5781" id="AdminController" rx="2.5" ry="2.5" style="stroke:#000000;stroke-width:0.5;" width="193" x="2356.5" y="215"/><ellipse cx="2398.5" cy="236.3516" fill="#ADD1B2" rx="11" ry="11" style="stroke:#181818;stroke-width:1.0;"/><path d="M2401.2656,232.2266 Q2401.4219,232.0078 2401.6094,231.8984 Q2401.7969,231.7891 2402.0156,231.7891 Q2402.3906,231.7891 2402.625,232.0547 Q2402.8594,232.3047 2402.8594,232.9141 L2402.8594,234.3672 Q2402.8594,234.9766 2402.625,235.2422 Q2402.3906,235.5078 2402.0156,235.5078 Q2401.6719,235.5078 2401.4688,235.3047 Q2401.2656,235.1172 2401.1563,234.6016 Q2401.1094,234.2422 2400.9219,234.0547 Q2400.5938,233.6797 2399.9844,233.4609 Q2399.375,233.2422 2398.75,233.2422 Q2397.9844,233.2422 2397.3438,233.5703 Q2396.7188,233.8984 2396.2188,234.6484 Q2395.7344,235.3984 2395.7344,236.4297 L2395.7344,237.5234 Q2395.7344,238.7578 2396.625,239.5859 Q2397.5156,240.3984 2399.1094,240.3984 Q2400.0469,240.3984 2400.7031,240.1484 Q2401.0938,239.9922 2401.5156,239.5547 Q2401.7813,239.2891 2401.9219,239.2109 Q2402.0781,239.1328 2402.2813,239.1328 Q2402.6094,239.1328 2402.8594,239.3984 Q2403.125,239.6484 2403.125,239.9922 Q2403.125,240.3359 2402.7813,240.7422 Q2402.2813,241.3203 2401.4844,241.6484 Q2400.4063,242.1016 2399.1094,242.1016 Q2397.5938,242.1016 2396.3906,241.4766 Q2395.4063,240.9766 2394.7188,239.9141 Q2394.0313,238.8359 2394.0313,237.5547 L2394.0313,236.3984 Q2394.0313,235.0703 2394.6406,233.9297 Q2395.2656,232.7734 2396.3594,232.1641 Q2397.4531,231.5391 2398.6875,231.5391 Q2399.4219,231.5391 2400.0625,231.7109 Q2400.7188,231.8672 2401.2656,232.2266 Z " fill="#000000"/><text fill="#000000" font-family="sans-serif" font-size="12" font-style="italic" lengthAdjust="spacing" textLength="68" x="2435" y="232.457">&#171;Controller&#187;</text><text fill="#000000" font-family="sans-serif" font-size="14" lengthAdjust="spacing" textLength="101" x="2418.5" y="249.627">AdminController</text><line style="stroke:#000000;stroke-width:0.5;" x1="2357.5" x2="2548.5" y1="257.7031" y2="257.7031"/><text fill="#000000" font-family="sans-serif" font-size="14" lengthAdjust="spacing" textLength="134" x="2362.5" y="276.2363">-parqueaderoService</text><text fill="#000000" font-family="sans-serif" font-size="14" lengthAdjust="spacing" textLength="100" x="2362.5" y="293.8457">-reservaService</text><line style="stroke:#000000;stroke-width:1.0;" x1="2357.5" x2="2548.5" y1="300.9219" y2="300.9219"/><text fill="#000000" font-family="sans-serif" font-size="14" lengthAdjust="spacing" textLength="141" x="2362.5" y="319.4551">+mostrarPanelAdmin()</text><text fill="#000000" font-family="sans-serif" font-size="14" lengthAdjust="spacing" textLength="181" x="2362.5" y="337.0645">+buscarReservaPorCedula()</text><text fill="#000000" font-family="sans-serif" font-size="14" lengthAdjust="spacing" textLength="137" x="2362.5" y="354.6738">+editarParqueadero()</text><text fill="#000000" font-family="sans-serif" font-size="14" lengthAdjust="spacing" textLength="135" x="2362.5" y="372.2832">+actualizarEspacios()</text><text fill="#000000" font-family="sans-serif" font-size="14" lengthAdjust="spacing" textLength="119" x="2362.5" y="389.8926">+aceptarReserva()</text><text fill="#000000" font-family="sans-serif" font-size="14" lengthAdjust="spacing" textLength="126" x="2362.5" y="407.502">+rechazarReserva()</text></g><!--class ClienteController--><g id="elem_ClienteController"><rect codeLine="26" fill="#E3F2FD" height="111.5313" id="ClienteController" rx="2.5" ry="2.5" style="stroke:#000000;stroke-width:0.5;" width="158" x="2163" y="259"/><ellipse cx="2187" cy="280.3516" fill="#ADD1B2" rx="11" ry="11" style="stroke:#181818;stroke-width:1.0;"/><path d="M2189.7656,276.2266 Q2189.9219,276.0078 2190.1094,275.8984 Q2190.2969,275.7891 2190.5156,275.7891 Q2190.8906,275.7891 2191.125,276.0547 Q2191.3594,276.3047 2191.3594,276.9141 L2191.3594,278.3672 Q2191.3594,278.9766 2191.125,279.2422 Q2190.8906,279.5078 2190.5156,279.5078 Q2190.1719,279.5078 2189.9688,279.3047 Q2189.7656,279.1172 2189.6563,278.6016 Q2189.6094,278.2422 2189.4219,278.0547 Q2189.0938,277.6797 2188.4844,277.4609 Q2187.875,277.2422 2187.25,277.2422 Q2186.4844,277.2422 2185.8438,277.5703 Q2185.2188,277.8984 2184.7188,278.6484 Q2184.2344,279.3984 2184.2344,280.4297 L2184.2344,281.5234 Q2184.2344,282.7578 2185.125,283.5859 Q2186.0156,284.3984 2187.6094,284.3984 Q2188.5469,284.3984 2189.2031,284.1484 Q2189.5938,283.9922 2190.0156,283.5547 Q2190.2813,283.2891 2190.4219,283.2109 Q2190.5781,283.1328 2190.7813,283.1328 Q2191.1094,283.1328 2191.3594,283.3984 Q2191.625,283.6484 2191.625,283.9922 Q2191.625,284.3359 2191.2813,284.7422 Q2190.7813,285.3203 2189.9844,285.6484 Q2188.9063,286.1016 2187.6094,286.1016 Q2186.0938,286.1016 2184.8906,285.4766 Q2183.9063,284.9766 2183.2188,283.9141 Q2182.5313,282.8359 2182.5313,281.5547 L2182.5313,280.3984 Q2182.5313,279.0703 2183.1406,277.9297 Q2183.7656,276.7734 2184.8594,276.1641 Q2185.9531,275.5391 2187.1875,275.5391 Q2187.9219,275.5391 2188.5625,275.7109 Q2189.2188,275.8672 2189.7656,276.2266 Z " fill="#000000"/><text fill="#000000" font-family="sans-serif" font-size="12" font-style="italic" lengthAdjust="spacing" textLength="68" x="2222" y="276.457">&#171;Controller&#187;</text><text fill="#000000" font-family="sans-serif" font-size="14" lengthAdjust="spacing" textLength="106" x="2203" y="293.627">ClienteController</text><line style="stroke:#000000;stroke-width:0.5;" x1="2164" x2="2320" y1="301.7031" y2="301.7031"/><text fill="#000000" font-family="sans-serif" font-size="14" lengthAdjust="spacing" textLength="82" x="2169" y="320.2363">-zonaService</text><text fill="#000000" font-family="sans-serif" font-size="14" lengthAdjust="spacing" textLength="100" x="2169" y="337.8457">-reservaService</text><line style="stroke:#000000;stroke-width:1.0;" x1="2164" x2="2320" y1="344.9219" y2="344.9219"/><text fill="#000000" font-family="sans-serif" font-size="14" lengthAdjust="spacing" textLength="146" x="2169" y="363.4551">+mostrarPanelCliente()</text></g><!--class LoginController--><g id="elem_LoginController"><rect codeLine="33" fill="#E3F2FD" height="129.1406" id="LoginController" rx="2.5" ry="2.5" style="stroke:#000000;stroke-width:0.5;" width="129" x="1521.5" y="250.5"/><ellipse cx="1536.5" cy="271.8516" fill="#ADD1B2" rx="11" ry="11" style="stroke:#181818;stroke-width:1.0;"/><path d="M1539.2656,267.7266 Q1539.4219,267.5078 1539.6094,267.3984 Q1539.7969,267.2891 1540.0156,267.2891 Q1540.3906,267.2891 1540.625,267.5547 Q1540.8594,267.8047 1540.8594,268.4141 L1540.8594,269.8672 Q1540.8594,270.4766 1540.625,270.7422 Q1540.3906,271.0078 1540.0156,271.0078 Q1539.6719,271.0078 1539.4688,270.8047 Q1539.2656,270.6172 1539.1563,270.1016 Q1539.1094,269.7422 1538.9219,269.5547 Q1538.5938,269.1797 1537.9844,268.9609 Q1537.375,268.7422 1536.75,268.7422 Q1535.9844,268.7422 1535.3438,269.0703 Q1534.7188,269.3984 1534.2188,270.1484 Q1533.7344,270.8984 1533.7344,271.9297 L1533.7344,273.0234 Q1533.7344,274.2578 1534.625,275.0859 Q1535.5156,275.8984 1537.1094,275.8984 Q1538.0469,275.8984 1538.7031,275.6484 Q1539.0938,275.4922 1539.5156,275.0547 Q1539.7813,274.7891 1539.9219,274.7109 Q1540.0781,274.6328 1540.2813,274.6328 Q1540.6094,274.6328 1540.8594,274.8984 Q1541.125,275.1484 1541.125,275.4922 Q1541.125,275.8359 1540.7813,276.2422 Q1540.2813,276.8203 1539.4844,277.1484 Q1538.4063,277.6016 1537.1094,277.6016 Q1535.5938,277.6016 1534.3906,276.9766 Q1533.4063,276.4766 1532.7188,275.4141 Q1532.0313,274.3359 1532.0313,273.0547 L1532.0313,271.8984 Q1532.0313,270.5703 1532.6406,269.4297 Q1533.2656,268.2734 1534.3594,267.6641 Q1535.4531,267.0391 1536.6875,267.0391 Q1537.4219,267.0391 1538.0625,267.2109 Q1538.7188,267.3672 1539.2656,267.7266 Z " fill="#000000"/><text fill="#000000" font-family="sans-serif" font-size="12" font-style="italic" lengthAdjust="spacing" textLength="68" x="1565" y="267.957">&#171;Controller&#187;</text><text fill="#000000" font-family="sans-serif" font-size="14" lengthAdjust="spacing" textLength="97" x="1550.5" y="285.127">LoginController</text><line style="stroke:#000000;stroke-width:0.5;" x1="1522.5" x2="1649.5" y1="293.2031" y2="293.2031"/><text fill="#000000" font-family="sans-serif" font-size="14" lengthAdjust="spacing" textLength="99" x="1527.5" y="311.7363">-usuarioService</text><line style="stroke:#000000;stroke-width:1.0;" x1="1522.5" x2="1649.5" y1="318.8125" y2="318.8125"/><text fill="#000000" font-family="sans-serif" font-size="14" lengthAdjust="spacing" textLength="101" x="1527.5" y="337.3457">+mostrarLogin()</text><text fill="#000000" font-family="sans-serif" font-size="14" lengthAdjust="spacing" textLength="109" x="1527.5" y="354.9551">+procesarLogin()</text><text fill="#000000" font-family="sans-serif" font-size="14" lengthAdjust="spacing" textLength="99" x="1527.5" y="372.5645">+cerrarSesion()</text></g><!--class RegistroController--><g id="elem_RegistroController"><rect codeLine="41" fill="#E3F2FD" height="111.5313" id="RegistroController" rx="2.5" ry="2.5" style="stroke:#000000;stroke-width:0.5;" width="147" x="1339.5" y="259"/><ellipse cx="1354.5" cy="280.3516" fill="#ADD1B2" rx="11" ry="11" style="stroke:#181818;stroke-width:1.0;"/><path d="M1357.2656,276.2266 Q1357.4219,276.0078 1357.6094,275.8984 Q1357.7969,275.7891 1358.0156,275.7891 Q1358.3906,275.7891 1358.625,276.0547 Q1358.8594,276.3047 1358.8594,276.9141 L1358.8594,278.3672 Q1358.8594,278.9766 1358.625,279.2422 Q1358.3906,279.5078 1358.0156,279.5078 Q1357.6719,279.5078 1357.4688,279.3047 Q1357.2656,279.1172 1357.1563,278.6016 Q1357.1094,278.2422 1356.9219,278.0547 Q1356.5938,277.6797 1355.9844,277.4609 Q1355.375,277.2422 1354.75,277.2422 Q1353.9844,277.2422 1353.3438,277.5703 Q1352.7188,277.8984 1352.2188,278.6484 Q1351.7344,279.3984 1351.7344,280.4297 L1351.7344,281.5234 Q1351.7344,282.7578 1352.625,283.5859 Q1353.5156,284.3984 1355.1094,284.3984 Q1356.0469,284.3984 1356.7031,284.1484 Q1357.0938,283.9922 1357.5156,283.5547 Q1357.7813,283.2891 1357.9219,283.2109 Q1358.0781,283.1328 1358.2813,283.1328 Q1358.6094,283.1328 1358.8594,283.3984 Q1359.125,283.6484 1359.125,283.9922 Q1359.125,284.3359 1358.7813,284.7422 Q1358.2813,285.3203 1357.4844,285.6484 Q1356.4063,286.1016 1355.1094,286.1016 Q1353.5938,286.1016 1352.3906,285.4766 Q1351.4063,284.9766 1350.7188,283.9141 Q1350.0313,282.8359 1350.0313,281.5547 L1350.0313,280.3984 Q1350.0313,279.0703 1350.6406,277.9297 Q1351.2656,276.7734 1352.3594,276.1641 Q1353.4531,275.5391 1354.6875,275.5391 Q1355.4219,275.5391 1356.0625,275.7109 Q1356.7188,275.8672 1357.2656,276.2266 Z " fill="#000000"/><text fill="#000000" font-family="sans-serif" font-size="12" font-style="italic" lengthAdjust="spacing" textLength="68" x="1392" y="276.457">&#171;Controller&#187;</text><text fill="#000000" font-family="sans-serif" font-size="14" lengthAdjust="spacing" textLength="115" x="1368.5" y="293.627">RegistroController</text><line style="stroke:#000000;stroke-width:0.5;" x1="1340.5" x2="1485.5" y1="301.7031" y2="301.7031"/><text fill="#000000" font-family="sans-serif" font-size="14" lengthAdjust="spacing" textLength="99" x="1345.5" y="320.2363">-usuarioService</text><line style="stroke:#000000;stroke-width:1.0;" x1="1340.5" x2="1485.5" y1="327.3125" y2="327.3125"/><text fill="#000000" font-family="sans-serif" font-size="14" lengthAdjust="spacing" textLength="134" x="1345.5" y="345.8457">+mostrarFormulario()</text><text fill="#000000" font-family="sans-serif" font-size="14" lengthAdjust="spacing" textLength="115" x="1345.5" y="363.4551">+registrarCliente()</text></g><!--class ReservaController--><g id="elem_ReservaController"><rect codeLine="48" fill="#E3F2FD" height="129.1406" id="ReservaController" rx="2.5" ry="2.5" style="stroke:#000000;stroke-width:0.5;" width="199" x="2584.5" y="250.5"/><ellipse cx="2622.9" cy="271.8516" fill="#ADD1B2" rx="11" ry="11" style="stroke:#181818;stroke-width:1.0;"/><path d="M2625.6656,267.7266 Q2625.8219,267.5078 2626.0094,267.3984 Q2626.1969,267.2891 2626.4156,267.2891 Q2626.7906,267.2891 2627.025,267.5547 Q2627.2594,267.8047 2627.2594,268.4141 L2627.2594,269.8672 Q2627.2594,270.4766 2627.025,270.7422 Q2626.7906,271.0078 2626.4156,271.0078 Q2626.0719,271.0078 2625.8688,270.8047 Q2625.6656,270.6172 2625.5563,270.1016 Q2625.5094,269.7422 2625.3219,269.5547 Q2624.9938,269.1797 2624.3844,268.9609 Q2623.775,268.7422 2623.15,268.7422 Q2622.3844,268.7422 2621.7438,269.0703 Q2621.1188,269.3984 2620.6188,270.1484 Q2620.1344,270.8984 2620.1344,271.9297 L2620.1344,273.0234 Q2620.1344,274.2578 2621.025,275.0859 Q2621.9156,275.8984 2623.5094,275.8984 Q2624.4469,275.8984 2625.1031,275.6484 Q2625.4938,275.4922 2625.9156,275.0547 Q2626.1813,274.7891 2626.3219,274.7109 Q2626.4781,274.6328 2626.6813,274.6328 Q2627.0094,274.6328 2627.2594,274.8984 Q2627.525,275.1484 2627.525,275.4922 Q2627.525,275.8359 2627.1813,276.2422 Q2626.6813,276.8203 2625.8844,277.1484 Q2624.8063,277.6016 2623.5094,277.6016 Q2621.9938,277.6016 2620.7906,276.9766 Q2619.8063,276.4766 2619.1188,275.4141 Q2618.4313,274.3359 2618.4313,273.0547 L2618.4313,271.8984 Q2618.4313,270.5703 2619.0406,269.4297 Q2619.6656,268.2734 2620.7594,267.6641 Q2621.8531,267.0391 2623.0875,267.0391 Q2623.8219,267.0391 2624.4625,267.2109 Q2625.1188,267.3672 2625.6656,267.7266 Z " fill="#000000"/><text fill="#000000" font-family="sans-serif" font-size="12" font-style="italic" lengthAdjust="spacing" textLength="68" x="2665.6" y="267.957">&#171;Controller&#187;</text><text fill="#000000" font-family="sans-serif" font-size="14" lengthAdjust="spacing" textLength="115" x="2642.1" y="285.127">ReservaController</text><line style="stroke:#000000;stroke-width:0.5;" x1="2585.5" x2="2782.5" y1="293.2031" y2="293.2031"/><text fill="#000000" font-family="sans-serif" font-size="14" lengthAdjust="spacing" textLength="100" x="2590.5" y="311.7363">-reservaService</text><text fill="#000000" font-family="sans-serif" font-size="14" lengthAdjust="spacing" textLength="134" x="2590.5" y="329.3457">-parqueaderoService</text><line style="stroke:#000000;stroke-width:1.0;" x1="2585.5" x2="2782.5" y1="336.4219" y2="336.4219"/><text fill="#000000" font-family="sans-serif" font-size="14" lengthAdjust="spacing" textLength="187" x="2590.5" y="354.9551">+mostrarFormularioReserva()</text><text fill="#000000" font-family="sans-serif" font-size="14" lengthAdjust="spacing" textLength="104" x="2590.5" y="372.5645">+crearReserva()</text></g><!--class SuperAdminController--><g id="elem_SuperAdminController"><rect codeLine="56" fill="#E3F2FD" height="199.5781" id="SuperAdminController" rx="2.5" ry="2.5" style="stroke:#000000;stroke-width:0.5;" width="190" x="1686" y="215"/><ellipse cx="1709.55" cy="236.3516" fill="#ADD1B2" rx="11" ry="11" style="stroke:#181818;stroke-width:1.0;"/><path d="M1712.3156,232.2266 Q1712.4719,232.0078 1712.6594,231.8984 Q1712.8469,231.7891 1713.0656,231.7891 Q1713.4406,231.7891 1713.675,232.0547 Q1713.9094,232.3047 1713.9094,232.9141 L1713.9094,234.3672 Q1713.9094,234.9766 1713.675,235.2422 Q1713.4406,235.5078 1713.0656,235.5078 Q1712.7219,235.5078 1712.5188,235.3047 Q1712.3156,235.1172 1712.2063,234.6016 Q1712.1594,234.2422 1711.9719,234.0547 Q1711.6438,233.6797 1711.0344,233.4609 Q1710.425,233.2422 1709.8,233.2422 Q1709.0344,233.2422 1708.3938,233.5703 Q1707.7688,233.8984 1707.2688,234.6484 Q1706.7844,235.3984 1706.7844,236.4297 L1706.7844,237.5234 Q1706.7844,238.7578 1707.675,239.5859 Q1708.5656,240.3984 1710.1594,240.3984 Q1711.0969,240.3984 1711.7531,240.1484 Q1712.1438,239.9922 1712.5656,239.5547 Q1712.8313,239.2891 1712.9719,239.2109 Q1713.1281,239.1328 1713.3313,239.1328 Q1713.6594,239.1328 1713.9094,239.3984 Q1714.175,239.6484 1714.175,239.9922 Q1714.175,240.3359 1713.8313,240.7422 Q1713.3313,241.3203 1712.5344,241.6484 Q1711.4563,242.1016 1710.1594,242.1016 Q1708.6438,242.1016 1707.4406,241.4766 Q1706.4563,240.9766 1705.7688,239.9141 Q1705.0813,238.8359 1705.0813,237.5547 L1705.0813,236.3984 Q1705.0813,235.0703 1705.6906,233.9297 Q1706.3156,232.7734 1707.4094,232.1641 Q1708.5031,231.5391 1709.7375,231.5391 Q1710.4719,231.5391 1711.1125,231.7109 Q1711.7688,231.8672 1712.3156,232.2266 Z " fill="#000000"/><text fill="#000000" font-family="sans-serif" font-size="12" font-style="italic" lengthAdjust="spacing" textLength="68" x="1760.95" y="232.457">&#171;Controller&#187;</text><text fill="#000000" font-family="sans-serif" font-size="14" lengthAdjust="spacing" textLength="139" x="1725.45" y="249.627">SuperAdminController</text><line style="stroke:#000000;stroke-width:0.5;" x1="1687" x2="1875" y1="257.7031" y2="257.7031"/><text fill="#000000" font-family="sans-serif" font-size="14" lengthAdjust="spacing" textLength="134" x="1692" y="276.2363">-parqueaderoService</text><text fill="#000000" font-family="sans-serif" font-size="14" lengthAdjust="spacing" textLength="82" x="1692" y="293.8457">-zonaService</text><text fill="#000000" font-family="sans-serif" font-size="14" lengthAdjust="spacing" textLength="99" x="1692" y="311.4551">-usuarioService</text><line style="stroke:#000000;stroke-width:1.0;" x1="1687" x2="1875" y1="318.5313" y2="318.5313"/><text fill="#000000" font-family="sans-serif" font-size="14" lengthAdjust="spacing" textLength="178" x="1692" y="337.0645">+mostrarPanelSuperadmin()</text><text fill="#000000" font-family="sans-serif" font-size="14" lengthAdjust="spacing" textLength="154" x="1692" y="354.6738">+registrarParqueadero()</text><text fill="#000000" font-family="sans-serif" font-size="14" lengthAdjust="spacing" textLength="152" x="1692" y="372.2832">+asignarAdministrador()</text><text fill="#000000" font-family="sans-serif" font-size="14" lengthAdjust="spacing" textLength="103" x="1692" y="389.8926">+listarUsuarios()</text><text fill="#000000" font-family="sans-serif" font-size="14" lengthAdjust="spacing" textLength="126" x="1692" y="407.502">+actualizarUsuario()</text></g><!--class ZonaController--><g id="elem_ZonaController"><rect codeLine="68" fill="#E3F2FD" height="111.5313" id="ZonaController" rx="2.5" ry="2.5" style="stroke:#000000;stroke-width:0.5;" width="146" x="1911" y="259"/><ellipse cx="1935" cy="280.3516" fill="#ADD1B2" rx="11" ry="11" style="stroke:#181818;stroke-width:1.0;"/><path d="M1937.7656,276.2266 Q1937.9219,276.0078 1938.1094,275.8984 Q1938.2969,275.7891 1938.5156,275.7891 Q1938.8906,275.7891 1939.125,276.0547 Q1939.3594,276.3047 1939.3594,276.9141 L1939.3594,278.3672 Q1939.3594,278.9766 1939.125,279.2422 Q1938.8906,279.5078 1938.5156,279.5078 Q1938.1719,279.5078 1937.9688,279.3047 Q1937.7656,279.1172 1937.6563,278.6016 Q1937.6094,278.2422 1937.4219,278.0547 Q1937.0938,277.6797 1936.4844,277.4609 Q1935.875,277.2422 1935.25,277.2422 Q1934.4844,277.2422 1933.8438,277.5703 Q1933.2188,277.8984 1932.7188,278.6484 Q1932.2344,279.3984 1932.2344,280.4297 L1932.2344,281.5234 Q1932.2344,282.7578 1933.125,283.5859 Q1934.0156,284.3984 1935.6094,284.3984 Q1936.5469,284.3984 1937.2031,284.1484 Q1937.5938,283.9922 1938.0156,283.5547 Q1938.2813,283.2891 1938.4219,283.2109 Q1938.5781,283.1328 1938.7813,283.1328 Q1939.1094,283.1328 1939.3594,283.3984 Q1939.625,283.6484 1939.625,283.9922 Q1939.625,284.3359 1939.2813,284.7422 Q1938.7813,285.3203 1937.9844,285.6484 Q1936.9063,286.1016 1935.6094,286.1016 Q1934.0938,286.1016 1932.8906,285.4766 Q1931.9063,284.9766 1931.2188,283.9141 Q1930.5313,282.8359 1930.5313,281.5547 L1930.5313,280.3984 Q1930.5313,279.0703 1931.1406,277.9297 Q1931.7656,276.7734 1932.8594,276.1641 Q1933.9531,275.5391 1935.1875,275.5391 Q1935.9219,275.5391 1936.5625,275.7109 Q1937.2188,275.8672 1937.7656,276.2266 Z " fill="#000000"/><text fill="#000000" font-family="sans-serif" font-size="12" font-style="italic" lengthAdjust="spacing" textLength="68" x="1964" y="276.457">&#171;Controller&#187;</text><text fill="#000000" font-family="sans-serif" font-size="14" lengthAdjust="spacing" textLength="94" x="1951" y="293.627">ZonaController</text><line style="stroke:#000000;stroke-width:0.5;" x1="1912" x2="2056" y1="301.7031" y2="301.7031"/><text fill="#000000" font-family="sans-serif" font-size="14" lengthAdjust="spacing" textLength="82" x="1917" y="320.2363">-zonaService</text><text fill="#000000" font-family="sans-serif" font-size="14" lengthAdjust="spacing" textLength="134" x="1917" y="337.8457">-parqueaderoService</text><line style="stroke:#000000;stroke-width:1.0;" x1="1912" x2="2056" y1="344.9219" y2="344.9219"/><text fill="#000000" font-family="sans-serif" font-size="14" lengthAdjust="spacing" textLength="98" x="1917" y="363.4551">+mostrarZona()</text></g><!--class ParqueaderoService--><g id="elem_ParqueaderoService"><rect codeLine="76" fill="#C8E6C9" height="146.75" id="ParqueaderoService" rx="2.5" ry="2.5" style="stroke:#000000;stroke-width:0.5;" width="195" x="2003.5" y="476"/><ellipse cx="2033.8" cy="497.3516" fill="#B4A7E5" rx="11" ry="11" style="stroke:#181818;stroke-width:1.0;"/><path d="M2034.7531,493.9922 L2034.7531,500.6484 L2036.4719,500.6484 Q2037.0813,500.6484 2037.3469,500.8828 Q2037.6125,501.1172 2037.6125,501.5078 Q2037.6125,501.8828 2037.3469,502.1172 Q2037.0813,502.3516 2036.4719,502.3516 L2031.3313,502.3516 Q2030.7219,502.3516 2030.4563,502.1172 Q2030.1906,501.8828 2030.1906,501.4922 Q2030.1906,501.1172 2030.4563,500.8828 Q2030.7219,500.6484 2031.3313,500.6484 L2033.05,500.6484 L2033.05,493.9922 L2031.3313,493.9922 Q2030.7219,493.9922 2030.4563,493.7578 Q2030.1906,493.5234 2030.1906,493.1328 Q2030.1906,492.7578 2030.4563,492.5234 Q2030.7219,492.2891 2031.3313,492.2891 L2036.4719,492.2891 Q2037.0813,492.2891 2037.3469,492.5234 Q2037.6125,492.7578 2037.6125,493.1328 Q2037.6125,493.5234 2037.3469,493.7578 Q2037.0813,493.9922 2036.4719,493.9922 L2034.7531,493.9922 Z " fill="#000000"/><text fill="#000000" font-family="sans-serif" font-size="12" font-style="italic" lengthAdjust="spacing" textLength="55" x="2088.2" y="493.457">&#171;Service&#187;</text><text fill="#000000" font-family="sans-serif" font-size="14" font-style="italic" lengthAdjust="spacing" textLength="129" x="2051.2" y="510.627">ParqueaderoService</text><line style="stroke:#000000;stroke-width:0.5;" x1="2004.5" x2="2197.5" y1="518.7031" y2="518.7031"/><line style="stroke:#000000;stroke-width:0.5;" x1="2004.5" x2="2197.5" y1="526.7031" y2="526.7031"/><text fill="#000000" font-family="sans-serif" font-size="14" lengthAdjust="spacing" textLength="154" x="2009.5" y="545.2363">+registrarParqueadero()</text><text fill="#000000" font-family="sans-serif" font-size="14" lengthAdjust="spacing" textLength="183" x="2009.5" y="562.8457">+obtenerParqueaderoPorId()</text><text fill="#000000" font-family="sans-serif" font-size="14" lengthAdjust="spacing" textLength="138" x="2009.5" y="580.4551">+listarParqueaderos()</text><text fill="#000000" font-family="sans-serif" font-size="14" lengthAdjust="spacing" textLength="152" x="2009.5" y="598.0645">+asignarAdministrador()</text><text fill="#000000" font-family="sans-serif" font-size="14" lengthAdjust="spacing" textLength="112" x="2009.5" y="615.6738">+cambiarEstado()</text></g><!--class ReservaService--><g id="elem_ReservaService"><rect codeLine="84" fill="#C8E6C9" height="129.1406" id="ReservaService" rx="2.5" ry="2.5" style="stroke:#000000;stroke-width:0.5;" width="177" x="2452.5" y="485"/><ellipse cx="2488.65" cy="506.3516" fill="#B4A7E5" rx="11" ry="11" style="stroke:#181818;stroke-width:1.0;"/><path d="M2489.6031,502.9922 L2489.6031,509.6484 L2491.3219,509.6484 Q2491.9313,509.6484 2492.1969,509.8828 Q2492.4625,510.1172 2492.4625,510.5078 Q2492.4625,510.8828 2492.1969,511.1172 Q2491.9313,511.3516 2491.3219,511.3516 L2486.1813,511.3516 Q2485.5719,511.3516 2485.3063,511.1172 Q2485.0406,510.8828 2485.0406,510.4922 Q2485.0406,510.1172 2485.3063,509.8828 Q2485.5719,509.6484 2486.1813,509.6484 L2487.9,509.6484 L2487.9,502.9922 L2486.1813,502.9922 Q2485.5719,502.9922 2485.3063,502.7578 Q2485.0406,502.5234 2485.0406,502.1328 Q2485.0406,501.7578 2485.3063,501.5234 Q2485.5719,501.2891 2486.1813,501.2891 L2491.3219,501.2891 Q2491.9313,501.2891 2492.1969,501.5234 Q2492.4625,501.7578 2492.4625,502.1328 Q2492.4625,502.5234 2492.1969,502.7578 Q2491.9313,502.9922 2491.3219,502.9922 L2489.6031,502.9922 Z " fill="#000000"/><text fill="#000000" font-family="sans-serif" font-size="12" font-style="italic" lengthAdjust="spacing" textLength="55" x="2528.85" y="502.457">&#171;Service&#187;</text><text fill="#000000" font-family="sans-serif" font-size="14" font-style="italic" lengthAdjust="spacing" textLength="98" x="2507.35" y="519.627">ReservaService</text><line style="stroke:#000000;stroke-width:0.5;" x1="2453.5" x2="2628.5" y1="527.7031" y2="527.7031"/><line style="stroke:#000000;stroke-width:0.5;" x1="2453.5" x2="2628.5" y1="535.7031" y2="535.7031"/><text fill="#000000" font-family="sans-serif" font-size="14" lengthAdjust="spacing" textLength="104" x="2458.5" y="554.2363">+crearReserva()</text><text fill="#000000" font-family="sans-serif" font-size="14" lengthAdjust="spacing" textLength="152" x="2458.5" y="571.8457">+listarReservasCliente()</text><text fill="#000000" font-family="sans-serif" font-size="14" lengthAdjust="spacing" textLength="165" x="2458.5" y="589.4551">+cambiarEstadoReserva()</text><text fill="#000000" font-family="sans-serif" font-size="14" lengthAdjust="spacing" textLength="120" x="2458.5" y="607.0645">+eliminarReserva()</text></g><!--class UsuarioService--><g id="elem_UsuarioService"><rect codeLine="91" fill="#C8E6C9" height="129.1406" id="UsuarioService" rx="2.5" ry="2.5" style="stroke:#000000;stroke-width:0.5;" width="193" x="1403.5" y="485"/><ellipse cx="1448.25" cy="506.3516" fill="#B4A7E5" rx="11" ry="11" style="stroke:#181818;stroke-width:1.0;"/><path d="M1449.2031,502.9922 L1449.2031,509.6484 L1450.9219,509.6484 Q1451.5313,509.6484 1451.7969,509.8828 Q1452.0625,510.1172 1452.0625,510.5078 Q1452.0625,510.8828 1451.7969,511.1172 Q1451.5313,511.3516 1450.9219,511.3516 L1445.7813,511.3516 Q1445.1719,511.3516 1444.9063,511.1172 Q1444.6406,510.8828 1444.6406,510.4922 Q1444.6406,510.1172 1444.9063,509.8828 Q1445.1719,509.6484 1445.7813,509.6484 L1447.5,509.6484 L1447.5,502.9922 L1445.7813,502.9922 Q1445.1719,502.9922 1444.9063,502.7578 Q1444.6406,502.5234 1444.6406,502.1328 Q1444.6406,501.7578 1444.9063,501.5234 Q1445.1719,501.2891 1445.7813,501.2891 L1450.9219,501.2891 Q1451.5313,501.2891 1451.7969,501.5234 Q1452.0625,501.7578 1452.0625,502.1328 Q1452.0625,502.5234 1451.7969,502.7578 Q1451.5313,502.9922 1450.9219,502.9922 L1449.2031,502.9922 Z " fill="#000000"/><text fill="#000000" font-family="sans-serif" font-size="12" font-style="italic" lengthAdjust="spacing" textLength="55" x="1488.75" y="502.457">&#171;Service&#187;</text><text fill="#000000" font-family="sans-serif" font-size="14" font-style="italic" lengthAdjust="spacing" textLength="95" x="1468.75" y="519.627">UsuarioService</text><line style="stroke:#000000;stroke-width:0.5;" x1="1404.5" x2="1595.5" y1="527.7031" y2="527.7031"/><line style="stroke:#000000;stroke-width:0.5;" x1="1404.5" x2="1595.5" y1="535.7031" y2="535.7031"/><text fill="#000000" font-family="sans-serif" font-size="14" lengthAdjust="spacing" textLength="119" x="1409.5" y="554.2363">+registrarUsuario()</text><text fill="#000000" font-family="sans-serif" font-size="14" lengthAdjust="spacing" textLength="95" x="1409.5" y="571.8457">+validarLogin()</text><text fill="#000000" font-family="sans-serif" font-size="14" lengthAdjust="spacing" textLength="181" x="1409.5" y="589.4551">+obtenerUsuarioPorCorreo()</text><text fill="#000000" font-family="sans-serif" font-size="14" lengthAdjust="spacing" textLength="126" x="1409.5" y="607.0645">+actualizarUsuario()</text></g><!--class ZonaService--><g id="elem_ZonaService"><rect codeLine="98" fill="#C8E6C9" height="93.9219" id="ZonaService" rx="2.5" ry="2.5" style="stroke:#000000;stroke-width:0.5;" width="144" x="1809" y="502.5"/><ellipse cx="1838.85" cy="523.8516" fill="#B4A7E5" rx="11" ry="11" style="stroke:#181818;stroke-width:1.0;"/><path d="M1839.8031,520.4922 L1839.8031,527.1484 L1841.5219,527.1484 Q1842.1313,527.1484 1842.3969,527.3828 Q1842.6625,527.6172 1842.6625,528.0078 Q1842.6625,528.3828 1842.3969,528.6172 Q1842.1313,528.8516 1841.5219,528.8516 L1836.3813,528.8516 Q1835.7719,528.8516 1835.5063,528.6172 Q1835.2406,528.3828 1835.2406,527.9922 Q1835.2406,527.6172 1835.5063,527.3828 Q1835.7719,527.1484 1836.3813,527.1484 L1838.1,527.1484 L1838.1,520.4922 L1836.3813,520.4922 Q1835.7719,520.4922 1835.5063,520.2578 Q1835.2406,520.0234 1835.2406,519.6328 Q1835.2406,519.2578 1835.5063,519.0234 Q1835.7719,518.7891 1836.3813,518.7891 L1841.5219,518.7891 Q1842.1313,518.7891 1842.3969,519.0234 Q1842.6625,519.2578 1842.6625,519.6328 Q1842.6625,520.0234 1842.3969,520.2578 Q1842.1313,520.4922 1841.5219,520.4922 L1839.8031,520.4922 Z " fill="#000000"/><text fill="#000000" font-family="sans-serif" font-size="12" font-style="italic" lengthAdjust="spacing" textLength="55" x="1868.15" y="519.957">&#171;Service&#187;</text><text fill="#000000" font-family="sans-serif" font-size="14" font-style="italic" lengthAdjust="spacing" textLength="79" x="1856.15" y="537.127">ZonaService</text><line style="stroke:#000000;stroke-width:0.5;" x1="1810" x2="1952" y1="545.2031" y2="545.2031"/><line style="stroke:#000000;stroke-width:0.5;" x1="1810" x2="1952" y1="553.2031" y2="553.2031"/><text fill="#000000" font-family="sans-serif" font-size="14" lengthAdjust="spacing" textLength="106" x="1815" y="571.7363">+obtenerZonas()</text><text fill="#000000" font-family="sans-serif" font-size="14" lengthAdjust="spacing" textLength="132" x="1815" y="589.3457">+obtenerZonaPorId()</text></g><!--class ParqueaderoServiceImpl--><g id="elem_ParqueaderoServiceImpl"><rect codeLine="104" fill="#C8E6C9" height="164.3594" id="ParqueaderoServiceImpl" rx="2.5" ry="2.5" style="stroke:#000000;stroke-width:0.5;" width="195" x="750.5" y="233"/><ellipse cx="769.1" cy="254.3516" fill="#ADD1B2" rx="11" ry="11" style="stroke:#181818;stroke-width:1.0;"/><path d="M771.8656,250.2266 Q772.0219,250.0078 772.2094,249.8984 Q772.3969,249.7891 772.6156,249.7891 Q772.9906,249.7891 773.225,250.0547 Q773.4594,250.3047 773.4594,250.9141 L773.4594,252.3672 Q773.4594,252.9766 773.225,253.2422 Q772.9906,253.5078 772.6156,253.5078 Q772.2719,253.5078 772.0688,253.3047 Q771.8656,253.1172 771.7563,252.6016 Q771.7094,252.2422 771.5219,252.0547 Q771.1938,251.6797 770.5844,251.4609 Q769.975,251.2422 769.35,251.2422 Q768.5844,251.2422 767.9438,251.5703 Q767.3188,251.8984 766.8188,252.6484 Q766.3344,253.3984 766.3344,254.4297 L766.3344,255.5234 Q766.3344,256.7578 767.225,257.5859 Q768.1156,258.3984 769.7094,258.3984 Q770.6469,258.3984 771.3031,258.1484 Q771.6938,257.9922 772.1156,257.5547 Q772.3813,257.2891 772.5219,257.2109 Q772.6781,257.1328 772.8813,257.1328 Q773.2094,257.1328 773.4594,257.3984 Q773.725,257.6484 773.725,257.9922 Q773.725,258.3359 773.3813,258.7422 Q772.8813,259.3203 772.0844,259.6484 Q771.0063,260.1016 769.7094,260.1016 Q768.1938,260.1016 766.9906,259.4766 Q766.0063,258.9766 765.3188,257.9141 Q764.6313,256.8359 764.6313,255.5547 L764.6313,254.3984 Q764.6313,253.0703 765.2406,251.9297 Q765.8656,250.7734 766.9594,250.1641 Q768.0531,249.5391 769.2875,249.5391 Q770.0219,249.5391 770.6625,249.7109 Q771.3188,249.8672 771.8656,250.2266 Z " fill="#000000"/><text fill="#000000" font-family="sans-serif" font-size="12" font-style="italic" lengthAdjust="spacing" textLength="55" x="833.9" y="250.457">&#171;Service&#187;</text><text fill="#000000" font-family="sans-serif" font-size="14" lengthAdjust="spacing" textLength="155" x="783.9" y="267.627">ParqueaderoServiceImpl</text><line style="stroke:#000000;stroke-width:0.5;" x1="751.5" x2="944.5" y1="275.7031" y2="275.7031"/><text fill="#000000" font-family="sans-serif" font-size="14" lengthAdjust="spacing" textLength="155" x="756.5" y="294.2363">-parqueaderoRepository</text><text fill="#000000" font-family="sans-serif" font-size="14" lengthAdjust="spacing" textLength="103" x="756.5" y="311.8457">-zonaRepository</text><text fill="#000000" font-family="sans-serif" font-size="14" lengthAdjust="spacing" textLength="120" x="756.5" y="329.4551">-usuarioRepository</text><line style="stroke:#000000;stroke-width:1.0;" x1="751.5" x2="944.5" y1="336.5313" y2="336.5313"/><text fill="#000000" font-family="sans-serif" font-size="14" lengthAdjust="spacing" textLength="154" x="756.5" y="355.0645">+registrarParqueadero()</text><text fill="#000000" font-family="sans-serif" font-size="14" lengthAdjust="spacing" textLength="183" x="756.5" y="372.6738">+obtenerParqueaderoPorId()</text><text fill="#000000" font-family="sans-serif" font-size="14" lengthAdjust="spacing" textLength="138" x="756.5" y="390.2832">+listarParqueaderos()</text></g><!--class ReservaServiceImpl--><g id="elem_ReservaServiceImpl"><rect codeLine="114" fill="#C8E6C9" height="146.75" id="ReservaServiceImpl" rx="2.5" ry="2.5" style="stroke:#000000;stroke-width:0.5;" width="177" x="2384.5" y="7"/><ellipse cx="2408.5" cy="28.3516" fill="#ADD1B2" rx="11" ry="11" style="stroke:#181818;stroke-width:1.0;"/><path d="M2411.2656,24.2266 Q2411.4219,24.0078 2411.6094,23.8984 Q2411.7969,23.7891 2412.0156,23.7891 Q2412.3906,23.7891 2412.625,24.0547 Q2412.8594,24.3047 2412.8594,24.9141 L2412.8594,26.3672 Q2412.8594,26.9766 2412.625,27.2422 Q2412.3906,27.5078 2412.0156,27.5078 Q2411.6719,27.5078 2411.4688,27.3047 Q2411.2656,27.1172 2411.1563,26.6016 Q2411.1094,26.2422 2410.9219,26.0547 Q2410.5938,25.6797 2409.9844,25.4609 Q2409.375,25.2422 2408.75,25.2422 Q2407.9844,25.2422 2407.3438,25.5703 Q2406.7188,25.8984 2406.2188,26.6484 Q2405.7344,27.3984 2405.7344,28.4297 L2405.7344,29.5234 Q2405.7344,30.7578 2406.625,31.5859 Q2407.5156,32.3984 2409.1094,32.3984 Q2410.0469,32.3984 2410.7031,32.1484 Q2411.0938,31.9922 2411.5156,31.5547 Q2411.7813,31.2891 2411.9219,31.2109 Q2412.0781,31.1328 2412.2813,31.1328 Q2412.6094,31.1328 2412.8594,31.3984 Q2413.125,31.6484 2413.125,31.9922 Q2413.125,32.3359 2412.7813,32.7422 Q2412.2813,33.3203 2411.4844,33.6484 Q2410.4063,34.1016 2409.1094,34.1016 Q2407.5938,34.1016 2406.3906,33.4766 Q2405.4063,32.9766 2404.7188,31.9141 Q2404.0313,30.8359 2404.0313,29.5547 L2404.0313,28.3984 Q2404.0313,27.0703 2404.6406,25.9297 Q2405.2656,24.7734 2406.3594,24.1641 Q2407.4531,23.5391 2408.6875,23.5391 Q2409.4219,23.5391 2410.0625,23.7109 Q2410.7188,23.8672 2411.2656,24.2266 Z " fill="#000000"/><text fill="#000000" font-family="sans-serif" font-size="12" font-style="italic" lengthAdjust="spacing" textLength="55" x="2459.5" y="24.457">&#171;Service&#187;</text><text fill="#000000" font-family="sans-serif" font-size="14" lengthAdjust="spacing" textLength="125" x="2424.5" y="41.627">ReservaServiceImpl</text><line style="stroke:#000000;stroke-width:0.5;" x1="2385.5" x2="2560.5" y1="49.7031" y2="49.7031"/><text fill="#000000" font-family="sans-serif" font-size="14" lengthAdjust="spacing" textLength="121" x="2390.5" y="68.2363">-reservaRepository</text><text fill="#000000" font-family="sans-serif" font-size="14" lengthAdjust="spacing" textLength="134" x="2390.5" y="85.8457">-parqueaderoService</text><text fill="#000000" font-family="sans-serif" font-size="14" lengthAdjust="spacing" textLength="85" x="2390.5" y="103.4551">-emailService</text><line style="stroke:#000000;stroke-width:1.0;" x1="2385.5" x2="2560.5" y1="110.5313" y2="110.5313"/><text fill="#000000" font-family="sans-serif" font-size="14" lengthAdjust="spacing" textLength="104" x="2390.5" y="129.0645">+crearReserva()</text><text fill="#000000" font-family="sans-serif" font-size="14" lengthAdjust="spacing" textLength="165" x="2390.5" y="146.6738">+cambiarEstadoReserva()</text></g><!--class UsuarioServiceImpl--><g id="elem_UsuarioServiceImpl"><rect codeLine="123" fill="#C8E6C9" height="129.1406" id="UsuarioServiceImpl" rx="2.5" ry="2.5" style="stroke:#000000;stroke-width:0.5;" width="152" x="981" y="250.5"/><ellipse cx="996" cy="271.8516" fill="#ADD1B2" rx="11" ry="11" style="stroke:#181818;stroke-width:1.0;"/><path d="M998.7656,267.7266 Q998.9219,267.5078 999.1094,267.3984 Q999.2969,267.2891 999.5156,267.2891 Q999.8906,267.2891 1000.125,267.5547 Q1000.3594,267.8047 1000.3594,268.4141 L1000.3594,269.8672 Q1000.3594,270.4766 1000.125,270.7422 Q999.8906,271.0078 999.5156,271.0078 Q999.1719,271.0078 998.9688,270.8047 Q998.7656,270.6172 998.6563,270.1016 Q998.6094,269.7422 998.4219,269.5547 Q998.0938,269.1797 997.4844,268.9609 Q996.875,268.7422 996.25,268.7422 Q995.4844,268.7422 994.8438,269.0703 Q994.2188,269.3984 993.7188,270.1484 Q993.2344,270.8984 993.2344,271.9297 L993.2344,273.0234 Q993.2344,274.2578 994.125,275.0859 Q995.0156,275.8984 996.6094,275.8984 Q997.5469,275.8984 998.2031,275.6484 Q998.5938,275.4922 999.0156,275.0547 Q999.2813,274.7891 999.4219,274.7109 Q999.5781,274.6328 999.7813,274.6328 Q1000.1094,274.6328 1000.3594,274.8984 Q1000.625,275.1484 1000.625,275.4922 Q1000.625,275.8359 1000.2813,276.2422 Q999.7813,276.8203 998.9844,277.1484 Q997.9063,277.6016 996.6094,277.6016 Q995.0938,277.6016 993.8906,276.9766 Q992.9063,276.4766 992.2188,275.4141 Q991.5313,274.3359 991.5313,273.0547 L991.5313,271.8984 Q991.5313,270.5703 992.1406,269.4297 Q992.7656,268.2734 993.8594,267.6641 Q994.9531,267.0391 996.1875,267.0391 Q996.9219,267.0391 997.5625,267.2109 Q998.2188,267.3672 998.7656,267.7266 Z " fill="#000000"/><text fill="#000000" font-family="sans-serif" font-size="12" font-style="italic" lengthAdjust="spacing" textLength="55" x="1042.5" y="267.957">&#171;Service&#187;</text><text fill="#000000" font-family="sans-serif" font-size="14" lengthAdjust="spacing" textLength="120" x="1010" y="285.127">UsuarioServiceImpl</text><line style="stroke:#000000;stroke-width:0.5;" x1="982" x2="1132" y1="293.2031" y2="293.2031"/><text fill="#000000" font-family="sans-serif" font-size="14" lengthAdjust="spacing" textLength="120" x="987" y="311.7363">-usuarioRepository</text><text fill="#000000" font-family="sans-serif" font-size="14" lengthAdjust="spacing" textLength="89" x="987" y="329.3457">-rolRepository</text><line style="stroke:#000000;stroke-width:1.0;" x1="982" x2="1132" y1="336.4219" y2="336.4219"/><text fill="#000000" font-family="sans-serif" font-size="14" lengthAdjust="spacing" textLength="119" x="987" y="354.9551">+registrarUsuario()</text><text fill="#000000" font-family="sans-serif" font-size="14" lengthAdjust="spacing" textLength="95" x="987" y="372.5645">+validarLogin()</text></g><!--class ZonaServiceImpl--><g id="elem_ZonaServiceImpl"><rect codeLine="131" fill="#C8E6C9" height="93.9219" id="ZonaServiceImpl" rx="2.5" ry="2.5" style="stroke:#000000;stroke-width:0.5;" width="136" x="1168" y="268"/><ellipse cx="1183" cy="289.3516" fill="#ADD1B2" rx="11" ry="11" style="stroke:#181818;stroke-width:1.0;"/><path d="M1185.7656,285.2266 Q1185.9219,285.0078 1186.1094,284.8984 Q1186.2969,284.7891 1186.5156,284.7891 Q1186.8906,284.7891 1187.125,285.0547 Q1187.3594,285.3047 1187.3594,285.9141 L1187.3594,287.3672 Q1187.3594,287.9766 1187.125,288.2422 Q1186.8906,288.5078 1186.5156,288.5078 Q1186.1719,288.5078 1185.9688,288.3047 Q1185.7656,288.1172 1185.6563,287.6016 Q1185.6094,287.2422 1185.4219,287.0547 Q1185.0938,286.6797 1184.4844,286.4609 Q1183.875,286.2422 1183.25,286.2422 Q1182.4844,286.2422 1181.8438,286.5703 Q1181.2188,286.8984 1180.7188,287.6484 Q1180.2344,288.3984 1180.2344,289.4297 L1180.2344,290.5234 Q1180.2344,291.7578 1181.125,292.5859 Q1182.0156,293.3984 1183.6094,293.3984 Q1184.5469,293.3984 1185.2031,293.1484 Q1185.5938,292.9922 1186.0156,292.5547 Q1186.2813,292.2891 1186.4219,292.2109 Q1186.5781,292.1328 1186.7813,292.1328 Q1187.1094,292.1328 1187.3594,292.3984 Q1187.625,292.6484 1187.625,292.9922 Q1187.625,293.3359 1187.2813,293.7422 Q1186.7813,294.3203 1185.9844,294.6484 Q1184.9063,295.1016 1183.6094,295.1016 Q1182.0938,295.1016 1180.8906,294.4766 Q1179.9063,293.9766 1179.2188,292.9141 Q1178.5313,291.8359 1178.5313,290.5547 L1178.5313,289.3984 Q1178.5313,288.0703 1179.1406,286.9297 Q1179.7656,285.7734 1180.8594,285.1641 Q1181.9531,284.5391 1183.1875,284.5391 Q1183.9219,284.5391 1184.5625,284.7109 Q1185.2188,284.8672 1185.7656,285.2266 Z " fill="#000000"/><text fill="#000000" font-family="sans-serif" font-size="12" font-style="italic" lengthAdjust="spacing" textLength="55" x="1221.5" y="285.457">&#171;Service&#187;</text><text fill="#000000" font-family="sans-serif" font-size="14" lengthAdjust="spacing" textLength="104" x="1197" y="302.627">ZonaServiceImpl</text><line style="stroke:#000000;stroke-width:0.5;" x1="1169" x2="1303" y1="310.7031" y2="310.7031"/><text fill="#000000" font-family="sans-serif" font-size="14" lengthAdjust="spacing" textLength="103" x="1174" y="329.2363">-zonaRepository</text><line style="stroke:#000000;stroke-width:1.0;" x1="1169" x2="1303" y1="336.3125" y2="336.3125"/><text fill="#000000" font-family="sans-serif" font-size="14" lengthAdjust="spacing" textLength="106" x="1174" y="354.8457">+obtenerZonas()</text></g><!--class EmailService--><g id="elem_EmailService"><rect codeLine="137" fill="#C8E6C9" height="93.9219" id="EmailService" rx="2.5" ry="2.5" style="stroke:#000000;stroke-width:0.5;" width="113" x="2890.5" y="268"/><ellipse cx="2905.5" cy="289.3516" fill="#ADD1B2" rx="11" ry="11" style="stroke:#181818;stroke-width:1.0;"/><path d="M2908.2656,285.2266 Q2908.4219,285.0078 2908.6094,284.8984 Q2908.7969,284.7891 2909.0156,284.7891 Q2909.3906,284.7891 2909.625,285.0547 Q2909.8594,285.3047 2909.8594,285.9141 L2909.8594,287.3672 Q2909.8594,287.9766 2909.625,288.2422 Q2909.3906,288.5078 2909.0156,288.5078 Q2908.6719,288.5078 2908.4688,288.3047 Q2908.2656,288.1172 2908.1563,287.6016 Q2908.1094,287.2422 2907.9219,287.0547 Q2907.5938,286.6797 2906.9844,286.4609 Q2906.375,286.2422 2905.75,286.2422 Q2904.9844,286.2422 2904.3438,286.5703 Q2903.7188,286.8984 2903.2188,287.6484 Q2902.7344,288.3984 2902.7344,289.4297 L2902.7344,290.5234 Q2902.7344,291.7578 2903.625,292.5859 Q2904.5156,293.3984 2906.1094,293.3984 Q2907.0469,293.3984 2907.7031,293.1484 Q2908.0938,292.9922 2908.5156,292.5547 Q2908.7813,292.2891 2908.9219,292.2109 Q2909.0781,292.1328 2909.2813,292.1328 Q2909.6094,292.1328 2909.8594,292.3984 Q2910.125,292.6484 2910.125,292.9922 Q2910.125,293.3359 2909.7813,293.7422 Q2909.2813,294.3203 2908.4844,294.6484 Q2907.4063,295.1016 2906.1094,295.1016 Q2904.5938,295.1016 2903.3906,294.4766 Q2902.4063,293.9766 2901.7188,292.9141 Q2901.0313,291.8359 2901.0313,290.5547 L2901.0313,289.3984 Q2901.0313,288.0703 2901.6406,286.9297 Q2902.2656,285.7734 2903.3594,285.1641 Q2904.4531,284.5391 2905.6875,284.5391 Q2906.4219,284.5391 2907.0625,284.7109 Q2907.7188,284.8672 2908.2656,285.2266 Z " fill="#000000"/><text fill="#000000" font-family="sans-serif" font-size="12" font-style="italic" lengthAdjust="spacing" textLength="55" x="2932.5" y="285.457">&#171;Service&#187;</text><text fill="#000000" font-family="sans-serif" font-size="14" lengthAdjust="spacing" textLength="81" x="2919.5" y="302.627">EmailService</text><line style="stroke:#000000;stroke-width:0.5;" x1="2891.5" x2="3002.5" y1="310.7031" y2="310.7031"/><text fill="#000000" font-family="sans-serif" font-size="14" lengthAdjust="spacing" textLength="76" x="2896.5" y="329.2363">-mailSender</text><line style="stroke:#000000;stroke-width:1.0;" x1="2891.5" x2="3002.5" y1="336.3125" y2="336.3125"/><text fill="#000000" font-family="sans-serif" font-size="14" lengthAdjust="spacing" textLength="101" x="2896.5" y="354.8457">+enviarCorreo()</text></g><!--class ParqueaderoRepository--><g id="elem_ParqueaderoRepository"><rect codeLine="144" fill="#FFCCBC" height="111.5313" id="ParqueaderoRepository" rx="2.5" ry="2.5" style="stroke:#000000;stroke-width:0.5;" width="183" x="606.5" y="493.5"/><ellipse cx="621.5" cy="514.8516" fill="#B4A7E5" rx="11" ry="11" style="stroke:#181818;stroke-width:1.0;"/><path d="M622.4531,511.4922 L622.4531,518.1484 L624.1719,518.1484 Q624.7813,518.1484 625.0469,518.3828 Q625.3125,518.6172 625.3125,519.0078 Q625.3125,519.3828 625.0469,519.6172 Q624.7813,519.8516 624.1719,519.8516 L619.0313,519.8516 Q618.4219,519.8516 618.1563,519.6172 Q617.8906,519.3828 617.8906,518.9922 Q617.8906,518.6172 618.1563,518.3828 Q618.4219,518.1484 619.0313,518.1484 L620.75,518.1484 L620.75,511.4922 L619.0313,511.4922 Q618.4219,511.4922 618.1563,511.2578 Q617.8906,511.0234 617.8906,510.6328 Q617.8906,510.2578 618.1563,510.0234 Q618.4219,509.7891 619.0313,509.7891 L624.1719,509.7891 Q624.7813,509.7891 625.0469,510.0234 Q625.3125,510.2578 625.3125,510.6328 Q625.3125,511.0234 625.0469,511.2578 Q624.7813,511.4922 624.1719,511.4922 L622.4531,511.4922 Z " fill="#000000"/><text fill="#000000" font-family="sans-serif" font-size="12" font-style="italic" lengthAdjust="spacing" textLength="73" x="674.5" y="510.957">&#171;Repository&#187;</text><text fill="#000000" font-family="sans-serif" font-size="14" font-style="italic" lengthAdjust="spacing" textLength="151" x="635.5" y="528.127">ParqueaderoRepository</text><line style="stroke:#000000;stroke-width:0.5;" x1="607.5" x2="788.5" y1="536.2031" y2="536.2031"/><line style="stroke:#000000;stroke-width:0.5;" x1="607.5" x2="788.5" y1="544.2031" y2="544.2031"/><text fill="#000000" font-family="sans-serif" font-size="14" lengthAdjust="spacing" textLength="89" x="612.5" y="562.7363">+findByZona()</text><text fill="#000000" font-family="sans-serif" font-size="14" lengthAdjust="spacing" textLength="144" x="612.5" y="580.3457">+findByAdministrador()</text><text fill="#000000" font-family="sans-serif" font-size="14" lengthAdjust="spacing" textLength="106" x="612.5" y="597.9551">+findByNombre()</text></g><!--class ReservaRepository--><g id="elem_ReservaRepository"><rect codeLine="150" fill="#FFCCBC" height="93.9219" id="ReservaRepository" rx="2.5" ry="2.5" style="stroke:#000000;stroke-width:0.5;" width="152" x="452" y="268"/><ellipse cx="467" cy="289.3516" fill="#B4A7E5" rx="11" ry="11" style="stroke:#181818;stroke-width:1.0;"/><path d="M467.9531,285.9922 L467.9531,292.6484 L469.6719,292.6484 Q470.2813,292.6484 470.5469,292.8828 Q470.8125,293.1172 470.8125,293.5078 Q470.8125,293.8828 470.5469,294.1172 Q470.2813,294.3516 469.6719,294.3516 L464.5313,294.3516 Q463.9219,294.3516 463.6563,294.1172 Q463.3906,293.8828 463.3906,293.4922 Q463.3906,293.1172 463.6563,292.8828 Q463.9219,292.6484 464.5313,292.6484 L466.25,292.6484 L466.25,285.9922 L464.5313,285.9922 Q463.9219,285.9922 463.6563,285.7578 Q463.3906,285.5234 463.3906,285.1328 Q463.3906,284.7578 463.6563,284.5234 Q463.9219,284.2891 464.5313,284.2891 L469.6719,284.2891 Q470.2813,284.2891 470.5469,284.5234 Q470.8125,284.7578 470.8125,285.1328 Q470.8125,285.5234 470.5469,285.7578 Q470.2813,285.9922 469.6719,285.9922 L467.9531,285.9922 Z " fill="#000000"/><text fill="#000000" font-family="sans-serif" font-size="12" font-style="italic" lengthAdjust="spacing" textLength="73" x="504.5" y="285.457">&#171;Repository&#187;</text><text fill="#000000" font-family="sans-serif" font-size="14" font-style="italic" lengthAdjust="spacing" textLength="120" x="481" y="302.627">ReservaRepository</text><line style="stroke:#000000;stroke-width:0.5;" x1="453" x2="603" y1="310.7031" y2="310.7031"/><line style="stroke:#000000;stroke-width:0.5;" x1="453" x2="603" y1="318.7031" y2="318.7031"/><text fill="#000000" font-family="sans-serif" font-size="14" lengthAdjust="spacing" textLength="140" x="458" y="337.2363">+findByParqueadero()</text><text fill="#000000" font-family="sans-serif" font-size="14" lengthAdjust="spacing" textLength="101" x="458" y="354.8457">+findByCliente()</text></g><!--class UsuarioRepository--><g id="elem_UsuarioRepository"><rect codeLine="155" fill="#FFCCBC" height="111.5313" id="UsuarioRepository" rx="2.5" ry="2.5" style="stroke:#000000;stroke-width:0.5;" width="149" x="824.5" y="493.5"/><ellipse cx="839.5" cy="514.8516" fill="#B4A7E5" rx="11" ry="11" style="stroke:#181818;stroke-width:1.0;"/><path d="M840.4531,511.4922 L840.4531,518.1484 L842.1719,518.1484 Q842.7813,518.1484 843.0469,518.3828 Q843.3125,518.6172 843.3125,519.0078 Q843.3125,519.3828 843.0469,519.6172 Q842.7813,519.8516 842.1719,519.8516 L837.0313,519.8516 Q836.4219,519.8516 836.1563,519.6172 Q835.8906,519.3828 835.8906,518.9922 Q835.8906,518.6172 836.1563,518.3828 Q836.4219,518.1484 837.0313,518.1484 L838.75,518.1484 L838.75,511.4922 L837.0313,511.4922 Q836.4219,511.4922 836.1563,511.2578 Q835.8906,511.0234 835.8906,510.6328 Q835.8906,510.2578 836.1563,510.0234 Q836.4219,509.7891 837.0313,509.7891 L842.1719,509.7891 Q842.7813,509.7891 843.0469,510.0234 Q843.3125,510.2578 843.3125,510.6328 Q843.3125,511.0234 843.0469,511.2578 Q842.7813,511.4922 842.1719,511.4922 L840.4531,511.4922 Z " fill="#000000"/><text fill="#000000" font-family="sans-serif" font-size="12" font-style="italic" lengthAdjust="spacing" textLength="73" x="875.5" y="510.957">&#171;Repository&#187;</text><text fill="#000000" font-family="sans-serif" font-size="14" font-style="italic" lengthAdjust="spacing" textLength="117" x="853.5" y="528.127">UsuarioRepository</text><line style="stroke:#000000;stroke-width:0.5;" x1="825.5" x2="972.5" y1="536.2031" y2="536.2031"/><line style="stroke:#000000;stroke-width:0.5;" x1="825.5" x2="972.5" y1="544.2031" y2="544.2031"/><text fill="#000000" font-family="sans-serif" font-size="14" lengthAdjust="spacing" textLength="101" x="830.5" y="562.7363">+findByCorreo()</text><text fill="#000000" font-family="sans-serif" font-size="14" lengthAdjust="spacing" textLength="102" x="830.5" y="580.3457">+findByCedula()</text><text fill="#000000" font-family="sans-serif" font-size="14" lengthAdjust="spacing" textLength="113" x="830.5" y="597.9551">+existsByCorreo()</text></g><!--class ZonaRepository--><g id="elem_ZonaRepository"><rect codeLine="161" fill="#FFCCBC" height="58.7031" id="ZonaRepository" rx="2.5" ry="2.5" style="stroke:#000000;stroke-width:0.5;" width="133" x="1008.5" y="520"/><ellipse cx="1023.5" cy="541.3516" fill="#B4A7E5" rx="11" ry="11" style="stroke:#181818;stroke-width:1.0;"/><path d="M1024.4531,537.9922 L1024.4531,544.6484 L1026.1719,544.6484 Q1026.7813,544.6484 1027.0469,544.8828 Q1027.3125,545.1172 1027.3125,545.5078 Q1027.3125,545.8828 1027.0469,546.1172 Q1026.7813,546.3516 1026.1719,546.3516 L1021.0313,546.3516 Q1020.4219,546.3516 1020.1563,546.1172 Q1019.8906,545.8828 1019.8906,545.4922 Q1019.8906,545.1172 1020.1563,544.8828 Q1020.4219,544.6484 1021.0313,544.6484 L1022.75,544.6484 L1022.75,537.9922 L1021.0313,537.9922 Q1020.4219,537.9922 1020.1563,537.7578 Q1019.8906,537.5234 1019.8906,537.1328 Q1019.8906,536.7578 1020.1563,536.5234 Q1020.4219,536.2891 1021.0313,536.2891 L1026.1719,536.2891 Q1026.7813,536.2891 1027.0469,536.5234 Q1027.3125,536.7578 1027.3125,537.1328 Q1027.3125,537.5234 1027.0469,537.7578 Q1026.7813,537.9922 1026.1719,537.9922 L1024.4531,537.9922 Z " fill="#000000"/><text fill="#000000" font-family="sans-serif" font-size="12" font-style="italic" lengthAdjust="spacing" textLength="73" x="1051.5" y="537.457">&#171;Repository&#187;</text><text fill="#000000" font-family="sans-serif" font-size="14" font-style="italic" lengthAdjust="spacing" textLength="101" x="1037.5" y="554.627">ZonaRepository</text><line style="stroke:#000000;stroke-width:0.5;" x1="1009.5" x2="1140.5" y1="562.7031" y2="562.7031"/><line style="stroke:#000000;stroke-width:0.5;" x1="1009.5" x2="1140.5" y1="570.7031" y2="570.7031"/></g><!--class RolRepository--><g id="elem_RolRepository"><rect codeLine="163" fill="#FFCCBC" height="58.7031" id="RolRepository" rx="2.5" ry="2.5" style="stroke:#000000;stroke-width:0.5;" width="121" x="1116.5" y="653"/><ellipse cx="1131.5" cy="674.3516" fill="#B4A7E5" rx="11" ry="11" style="stroke:#181818;stroke-width:1.0;"/><path d="M1132.4531,670.9922 L1132.4531,677.6484 L1134.1719,677.6484 Q1134.7813,677.6484 1135.0469,677.8828 Q1135.3125,678.1172 1135.3125,678.5078 Q1135.3125,678.8828 1135.0469,679.1172 Q1134.7813,679.3516 1134.1719,679.3516 L1129.0313,679.3516 Q1128.4219,679.3516 1128.1563,679.1172 Q1127.8906,678.8828 1127.8906,678.4922 Q1127.8906,678.1172 1128.1563,677.8828 Q1128.4219,677.6484 1129.0313,677.6484 L1130.75,677.6484 L1130.75,670.9922 L1129.0313,670.9922 Q1128.4219,670.9922 1128.1563,670.7578 Q1127.8906,670.5234 1127.8906,670.1328 Q1127.8906,669.7578 1128.1563,669.5234 Q1128.4219,669.2891 1129.0313,669.2891 L1134.1719,669.2891 Q1134.7813,669.2891 1135.0469,669.5234 Q1135.3125,669.7578 1135.3125,670.1328 Q1135.3125,670.5234 1135.0469,670.7578 Q1134.7813,670.9922 1134.1719,670.9922 L1132.4531,670.9922 Z " fill="#000000"/><text fill="#000000" font-family="sans-serif" font-size="12" font-style="italic" lengthAdjust="spacing" textLength="73" x="1153.5" y="670.457">&#171;Repository&#187;</text><text fill="#000000" font-family="sans-serif" font-size="14" font-style="italic" lengthAdjust="spacing" textLength="89" x="1145.5" y="687.627">RolRepository</text><line style="stroke:#000000;stroke-width:0.5;" x1="1117.5" x2="1236.5" y1="695.7031" y2="695.7031"/><line style="stroke:#000000;stroke-width:0.5;" x1="1117.5" x2="1236.5" y1="703.7031" y2="703.7031"/></g><!--class Usuario--><g id="elem_Usuario"><rect codeLine="166" fill="#FFF9C4" height="181.9688" id="Usuario" rx="2.5" ry="2.5" style="stroke:#000000;stroke-width:0.5;" width="167" x="474.5" y="1108"/><ellipse cx="529.75" cy="1129.3516" fill="#ADD1B2" rx="11" ry="11" style="stroke:#181818;stroke-width:1.0;"/><path d="M532.5156,1125.2266 Q532.6719,1125.0078 532.8594,1124.8984 Q533.0469,1124.7891 533.2656,1124.7891 Q533.6406,1124.7891 533.875,1125.0547 Q534.1094,1125.3047 534.1094,1125.9141 L534.1094,1127.3672 Q534.1094,1127.9766 533.875,1128.2422 Q533.6406,1128.5078 533.2656,1128.5078 Q532.9219,1128.5078 532.7188,1128.3047 Q532.5156,1128.1172 532.4063,1127.6016 Q532.3594,1127.2422 532.1719,1127.0547 Q531.8438,1126.6797 531.2344,1126.4609 Q530.625,1126.2422 530,1126.2422 Q529.2344,1126.2422 528.5938,1126.5703 Q527.9688,1126.8984 527.4688,1127.6484 Q526.9844,1128.3984 526.9844,1129.4297 L526.9844,1130.5234 Q526.9844,1131.7578 527.875,1132.5859 Q528.7656,1133.3984 530.3594,1133.3984 Q531.2969,1133.3984 531.9531,1133.1484 Q532.3438,1132.9922 532.7656,1132.5547 Q533.0313,1132.2891 533.1719,1132.2109 Q533.3281,1132.1328 533.5313,1132.1328 Q533.8594,1132.1328 534.1094,1132.3984 Q534.375,1132.6484 534.375,1132.9922 Q534.375,1133.3359 534.0313,1133.7422 Q533.5313,1134.3203 532.7344,1134.6484 Q531.6563,1135.1016 530.3594,1135.1016 Q528.8438,1135.1016 527.6406,1134.4766 Q526.6563,1133.9766 525.9688,1132.9141 Q525.2813,1131.8359 525.2813,1130.5547 L525.2813,1129.3984 Q525.2813,1128.0703 525.8906,1126.9297 Q526.5156,1125.7734 527.6094,1125.1641 Q528.7031,1124.5391 529.9375,1124.5391 Q530.6719,1124.5391 531.3125,1124.7109 Q531.9688,1124.8672 532.5156,1125.2266 Z " fill="#000000"/><text fill="#000000" font-family="sans-serif" font-size="12" font-style="italic" lengthAdjust="spacing" textLength="44" x="552.25" y="1125.457">&#171;Entity&#187;</text><text fill="#000000" font-family="sans-serif" font-size="14" lengthAdjust="spacing" textLength="48" x="550.25" y="1142.627">Usuario</text><line style="stroke:#000000;stroke-width:0.5;" x1="475.5" x2="640.5" y1="1150.7031" y2="1150.7031"/><text fill="#000000" font-family="sans-serif" font-size="14" lengthAdjust="spacing" textLength="148" x="480.5" y="1169.2363">-idUsuario: Integer {PK}</text><text fill="#000000" font-family="sans-serif" font-size="14" lengthAdjust="spacing" textLength="98" x="480.5" y="1186.8457">-nombre: String</text><text fill="#000000" font-family="sans-serif" font-size="14" lengthAdjust="spacing" textLength="155" x="480.5" y="1204.4551">-correo: String {UNIQUE}</text><text fill="#000000" font-family="sans-serif" font-size="14" lengthAdjust="spacing" textLength="121" x="480.5" y="1222.0645">-contrasena: String</text><text fill="#000000" font-family="sans-serif" font-size="14" lengthAdjust="spacing" textLength="92" x="480.5" y="1239.6738">-cedula: String</text><text fill="#000000" font-family="sans-serif" font-size="14" lengthAdjust="spacing" textLength="84" x="480.5" y="1257.2832">-placa: String</text><text fill="#000000" font-family="sans-serif" font-size="14" lengthAdjust="spacing" textLength="121" x="480.5" y="1274.8926">-idRol: Integer {FK}</text><line style="stroke:#000000;stroke-width:0.5;" x1="475.5" x2="640.5" y1="1281.9688" y2="1281.9688"/></g><!--class Rol--><g id="elem_Rol"><rect codeLine="176" fill="#FFF9C4" height="93.9219" id="Rol" rx="2.5" ry="2.5" style="stroke:#000000;stroke-width:0.5;" width="133" x="800.5" y="1368"/><ellipse cx="842.95" cy="1389.3516" fill="#ADD1B2" rx="11" ry="11" style="stroke:#181818;stroke-width:1.0;"/><path d="M845.7156,1385.2266 Q845.8719,1385.0078 846.0594,1384.8984 Q846.2469,1384.7891 846.4656,1384.7891 Q846.8406,1384.7891 847.075,1385.0547 Q847.3094,1385.3047 847.3094,1385.9141 L847.3094,1387.3672 Q847.3094,1387.9766 847.075,1388.2422 Q846.8406,1388.5078 846.4656,1388.5078 Q846.1219,1388.5078 845.9188,1388.3047 Q845.7156,1388.1172 845.6063,1387.6016 Q845.5594,1387.2422 845.3719,1387.0547 Q845.0438,1386.6797 844.4344,1386.4609 Q843.825,1386.2422 843.2,1386.2422 Q842.4344,1386.2422 841.7938,1386.5703 Q841.1688,1386.8984 840.6688,1387.6484 Q840.1844,1388.3984 840.1844,1389.4297 L840.1844,1390.5234 Q840.1844,1391.7578 841.075,1392.5859 Q841.9656,1393.3984 843.5594,1393.3984 Q844.4969,1393.3984 845.1531,1393.1484 Q845.5438,1392.9922 845.9656,1392.5547 Q846.2313,1392.2891 846.3719,1392.2109 Q846.5281,1392.1328 846.7313,1392.1328 Q847.0594,1392.1328 847.3094,1392.3984 Q847.575,1392.6484 847.575,1392.9922 Q847.575,1393.3359 847.2313,1393.7422 Q846.7313,1394.3203 845.9344,1394.6484 Q844.8563,1395.1016 843.5594,1395.1016 Q842.0438,1395.1016 840.8406,1394.4766 Q839.8563,1393.9766 839.1688,1392.9141 Q838.4813,1391.8359 838.4813,1390.5547 L838.4813,1389.3984 Q838.4813,1388.0703 839.0906,1386.9297 Q839.7156,1385.7734 840.8094,1385.1641 Q841.9031,1384.5391 843.1375,1384.5391 Q843.8719,1384.5391 844.5125,1384.7109 Q845.1688,1384.8672 845.7156,1385.2266 Z " fill="#000000"/><text fill="#000000" font-family="sans-serif" font-size="12" font-style="italic" lengthAdjust="spacing" textLength="44" x="861.05" y="1385.457">&#171;Entity&#187;</text><text fill="#000000" font-family="sans-serif" font-size="14" lengthAdjust="spacing" textLength="21" x="872.55" y="1402.627">Rol</text><line style="stroke:#000000;stroke-width:0.5;" x1="801.5" x2="932.5" y1="1410.7031" y2="1410.7031"/><text fill="#000000" font-family="sans-serif" font-size="14" lengthAdjust="spacing" textLength="121" x="806.5" y="1429.2363">-idRol: Integer {PK}</text><text fill="#000000" font-family="sans-serif" font-size="14" lengthAdjust="spacing" textLength="98" x="806.5" y="1446.8457">-nombre: String</text><line style="stroke:#000000;stroke-width:0.5;" x1="801.5" x2="932.5" y1="1453.9219" y2="1453.9219"/></g><!--class Parqueadero--><g id="elem_Parqueadero"><rect codeLine="181" fill="#FFF9C4" height="287.625" id="Parqueadero" rx="2.5" ry="2.5" style="stroke:#000000;stroke-width:0.5;" width="199" x="326.5" y="742"/><ellipse cx="380.25" cy="763.3516" fill="#ADD1B2" rx="11" ry="11" style="stroke:#181818;stroke-width:1.0;"/><path d="M383.0156,759.2266 Q383.1719,759.0078 383.3594,758.8984 Q383.5469,758.7891 383.7656,758.7891 Q384.1406,758.7891 384.375,759.0547 Q384.6094,759.3047 384.6094,759.9141 L384.6094,761.3672 Q384.6094,761.9766 384.375,762.2422 Q384.1406,762.5078 383.7656,762.5078 Q383.4219,762.5078 383.2188,762.3047 Q383.0156,762.1172 382.9063,761.6016 Q382.8594,761.2422 382.6719,761.0547 Q382.3438,760.6797 381.7344,760.4609 Q381.125,760.2422 380.5,760.2422 Q379.7344,760.2422 379.0938,760.5703 Q378.4688,760.8984 377.9688,761.6484 Q377.4844,762.3984 377.4844,763.4297 L377.4844,764.5234 Q377.4844,765.7578 378.375,766.5859 Q379.2656,767.3984 380.8594,767.3984 Q381.7969,767.3984 382.4531,767.1484 Q382.8438,766.9922 383.2656,766.5547 Q383.5313,766.2891 383.6719,766.2109 Q383.8281,766.1328 384.0313,766.1328 Q384.3594,766.1328 384.6094,766.3984 Q384.875,766.6484 384.875,766.9922 Q384.875,767.3359 384.5313,767.7422 Q384.0313,768.3203 383.2344,768.6484 Q382.1563,769.1016 380.8594,769.1016 Q379.3438,769.1016 378.1406,768.4766 Q377.1563,767.9766 376.4688,766.9141 Q375.7813,765.8359 375.7813,764.5547 L375.7813,763.3984 Q375.7813,762.0703 376.3906,760.9297 Q377.0156,759.7734 378.1094,759.1641 Q379.2031,758.5391 380.4375,758.5391 Q381.1719,758.5391 381.8125,758.7109 Q382.4688,758.8672 383.0156,759.2266 Z " fill="#000000"/><text fill="#000000" font-family="sans-serif" font-size="12" font-style="italic" lengthAdjust="spacing" textLength="44" x="420.25" y="759.457">&#171;Entity&#187;</text><text fill="#000000" font-family="sans-serif" font-size="14" lengthAdjust="spacing" textLength="83" x="400.75" y="776.627">Parqueadero</text><line style="stroke:#000000;stroke-width:0.5;" x1="327.5" x2="524.5" y1="784.7031" y2="784.7031"/><text fill="#000000" font-family="sans-serif" font-size="14" lengthAdjust="spacing" textLength="183" x="332.5" y="803.2363">-idParqueadero: Integer {PK}</text><text fill="#000000" font-family="sans-serif" font-size="14" lengthAdjust="spacing" textLength="98" x="332.5" y="820.8457">-nombre: String</text><text fill="#000000" font-family="sans-serif" font-size="14" lengthAdjust="spacing" textLength="107" x="332.5" y="838.4551">-direccion: String</text><text fill="#000000" font-family="sans-serif" font-size="14" lengthAdjust="spacing" textLength="95" x="332.5" y="856.0645">-horario: String</text><text fill="#000000" font-family="sans-serif" font-size="14" lengthAdjust="spacing" textLength="120" x="332.5" y="873.6738">-tarifaHora: Double</text><text fill="#000000" font-family="sans-serif" font-size="14" lengthAdjust="spacing" textLength="160" x="332.5" y="891.2832">-espaciosTotales: Integer</text><text fill="#000000" font-family="sans-serif" font-size="14" lengthAdjust="spacing" textLength="186" x="332.5" y="908.8926">-espaciosDisponibles: Integer</text><text fill="#000000" font-family="sans-serif" font-size="14" lengthAdjust="spacing" textLength="126" x="332.5" y="926.502">-habilitado: Boolean</text><text fill="#000000" font-family="sans-serif" font-size="14" lengthAdjust="spacing" textLength="100" x="332.5" y="944.1113">-urlMaps: String</text><text fill="#000000" font-family="sans-serif" font-size="14" lengthAdjust="spacing" textLength="101" x="332.5" y="961.7207">-telefono: String</text><text fill="#000000" font-family="sans-serif" font-size="14" lengthAdjust="spacing" textLength="132" x="332.5" y="979.3301">-idZona: Integer {FK}</text><text fill="#000000" font-family="sans-serif" font-size="14" lengthAdjust="spacing" textLength="175" x="332.5" y="996.9395">-registradoPor: Integer {FK}</text><text fill="#000000" font-family="sans-serif" font-size="14" lengthAdjust="spacing" textLength="187" x="332.5" y="1014.5488">-idAdministrador: Integer {FK}</text><line style="stroke:#000000;stroke-width:0.5;" x1="327.5" x2="524.5" y1="1021.625" y2="1021.625"/></g><!--class Reserva--><g id="elem_Reserva"><rect codeLine="197" fill="#FFF9C4" height="129.1406" id="Reserva" rx="2.5" ry="2.5" style="stroke:#000000;stroke-width:0.5;" width="195" x="98.5" y="485"/><ellipse cx="165.25" cy="506.3516" fill="#ADD1B2" rx="11" ry="11" style="stroke:#181818;stroke-width:1.0;"/><path d="M168.0156,502.2266 Q168.1719,502.0078 168.3594,501.8984 Q168.5469,501.7891 168.7656,501.7891 Q169.1406,501.7891 169.375,502.0547 Q169.6094,502.3047 169.6094,502.9141 L169.6094,504.3672 Q169.6094,504.9766 169.375,505.2422 Q169.1406,505.5078 168.7656,505.5078 Q168.4219,505.5078 168.2188,505.3047 Q168.0156,505.1172 167.9063,504.6016 Q167.8594,504.2422 167.6719,504.0547 Q167.3438,503.6797 166.7344,503.4609 Q166.125,503.2422 165.5,503.2422 Q164.7344,503.2422 164.0938,503.5703 Q163.4688,503.8984 162.9688,504.6484 Q162.4844,505.3984 162.4844,506.4297 L162.4844,507.5234 Q162.4844,508.7578 163.375,509.5859 Q164.2656,510.3984 165.8594,510.3984 Q166.7969,510.3984 167.4531,510.1484 Q167.8438,509.9922 168.2656,509.5547 Q168.5313,509.2891 168.6719,509.2109 Q168.8281,509.1328 169.0313,509.1328 Q169.3594,509.1328 169.6094,509.3984 Q169.875,509.6484 169.875,509.9922 Q169.875,510.3359 169.5313,510.7422 Q169.0313,511.3203 168.2344,511.6484 Q167.1563,512.1016 165.8594,512.1016 Q164.3438,512.1016 163.1406,511.4766 Q162.1563,510.9766 161.4688,509.9141 Q160.7813,508.8359 160.7813,507.5547 L160.7813,506.3984 Q160.7813,505.0703 161.3906,503.9297 Q162.0156,502.7734 163.1094,502.1641 Q164.2031,501.5391 165.4375,501.5391 Q166.1719,501.5391 166.8125,501.7109 Q167.4688,501.8672 168.0156,502.2266 Z " fill="#000000"/><text fill="#000000" font-family="sans-serif" font-size="12" font-style="italic" lengthAdjust="spacing" textLength="44" x="190.25" y="502.457">&#171;Entity&#187;</text><text fill="#000000" font-family="sans-serif" font-size="14" lengthAdjust="spacing" textLength="53" x="185.75" y="519.627">Reserva</text><line style="stroke:#000000;stroke-width:0.5;" x1="99.5" x2="292.5" y1="527.7031" y2="527.7031"/><text fill="#000000" font-family="sans-serif" font-size="14" lengthAdjust="spacing" textLength="153" x="104.5" y="546.2363">-idReserva: Integer {PK}</text><text fill="#000000" font-family="sans-serif" font-size="14" lengthAdjust="spacing" textLength="153" x="104.5" y="563.8457">-estado: EstadoReserva</text><text fill="#000000" font-family="sans-serif" font-size="14" lengthAdjust="spacing" textLength="144" x="104.5" y="581.4551">-idCliente: Integer {FK}</text><text fill="#000000" font-family="sans-serif" font-size="14" lengthAdjust="spacing" textLength="183" x="104.5" y="599.0645">-idParqueadero: Integer {FK}</text><line style="stroke:#000000;stroke-width:0.5;" x1="99.5" x2="292.5" y1="606.1406" y2="606.1406"/></g><!--class Zona--><g id="elem_Zona"><rect codeLine="204" fill="#FFF9C4" height="93.9219" id="Zona" rx="2.5" ry="2.5" style="stroke:#000000;stroke-width:0.5;" width="144" x="928" y="1152"/><ellipse cx="975.75" cy="1173.3516" fill="#ADD1B2" rx="11" ry="11" style="stroke:#181818;stroke-width:1.0;"/><path d="M978.5156,1169.2266 Q978.6719,1169.0078 978.8594,1168.8984 Q979.0469,1168.7891 979.2656,1168.7891 Q979.6406,1168.7891 979.875,1169.0547 Q980.1094,1169.3047 980.1094,1169.9141 L980.1094,1171.3672 Q980.1094,1171.9766 979.875,1172.2422 Q979.6406,1172.5078 979.2656,1172.5078 Q978.9219,1172.5078 978.7188,1172.3047 Q978.5156,1172.1172 978.4063,1171.6016 Q978.3594,1171.2422 978.1719,1171.0547 Q977.8438,1170.6797 977.2344,1170.4609 Q976.625,1170.2422 976,1170.2422 Q975.2344,1170.2422 974.5938,1170.5703 Q973.9688,1170.8984 973.4688,1171.6484 Q972.9844,1172.3984 972.9844,1173.4297 L972.9844,1174.5234 Q972.9844,1175.7578 973.875,1176.5859 Q974.7656,1177.3984 976.3594,1177.3984 Q977.2969,1177.3984 977.9531,1177.1484 Q978.3438,1176.9922 978.7656,1176.5547 Q979.0313,1176.2891 979.1719,1176.2109 Q979.3281,1176.1328 979.5313,1176.1328 Q979.8594,1176.1328 980.1094,1176.3984 Q980.375,1176.6484 980.375,1176.9922 Q980.375,1177.3359 980.0313,1177.7422 Q979.5313,1178.3203 978.7344,1178.6484 Q977.6563,1179.1016 976.3594,1179.1016 Q974.8438,1179.1016 973.6406,1178.4766 Q972.6563,1177.9766 971.9688,1176.9141 Q971.2813,1175.8359 971.2813,1174.5547 L971.2813,1173.3984 Q971.2813,1172.0703 971.8906,1170.9297 Q972.5156,1169.7734 973.6094,1169.1641 Q974.7031,1168.5391 975.9375,1168.5391 Q976.6719,1168.5391 977.3125,1168.7109 Q977.9688,1168.8672 978.5156,1169.2266 Z " fill="#000000"/><text fill="#000000" font-family="sans-serif" font-size="12" font-style="italic" lengthAdjust="spacing" textLength="44" x="994.25" y="1169.457">&#171;Entity&#187;</text><text fill="#000000" font-family="sans-serif" font-size="14" lengthAdjust="spacing" textLength="32" x="1000.25" y="1186.627">Zona</text><line style="stroke:#000000;stroke-width:0.5;" x1="929" x2="1071" y1="1194.7031" y2="1194.7031"/><text fill="#000000" font-family="sans-serif" font-size="14" lengthAdjust="spacing" textLength="132" x="934" y="1213.2363">-idZona: Integer {PK}</text><text fill="#000000" font-family="sans-serif" font-size="14" lengthAdjust="spacing" textLength="130" x="934" y="1230.8457">-nombreZona: String</text><line style="stroke:#000000;stroke-width:0.5;" x1="929" x2="1071" y1="1237.9219" y2="1237.9219"/></g><!--class EstadoReserva--><g id="elem_EstadoReserva"><rect codeLine="209" fill="#F1F1F1" height="100.8281" id="EstadoReserva" rx="2.5" ry="2.5" style="stroke:#000000;stroke-width:0.5;" width="129" x="162.5" y="835.5"/><ellipse cx="177.5" cy="851.5" fill="#EB937F" rx="11" ry="11" style="stroke:#181818;stroke-width:1.0;"/><path d="M176.3594,852.2969 L176.3594,854.7969 L180.6875,854.7969 L180.6875,853.875 Q180.6875,853.2656 180.9219,853 Q181.1719,852.7344 181.5469,852.7344 Q181.9219,852.7344 182.1563,853 Q182.3906,853.2656 182.3906,853.875 L182.3906,856.5 L174.3906,856.5 Q173.7656,856.5 173.5,856.2656 Q173.25,856.0313 173.25,855.6406 Q173.25,855.2656 173.5156,855.0313 Q173.7813,854.7969 174.3906,854.7969 L174.6563,854.7969 L174.6563,848.1406 L174.3906,848.1406 Q173.7656,848.1406 173.5,847.9063 Q173.25,847.6719 173.25,847.2813 Q173.25,846.9063 173.5,846.6719 Q173.7656,846.4375 174.3906,846.4375 L182.0156,846.4375 L182.0156,849.0313 Q182.0156,849.6406 181.7813,849.9063 Q181.5625,850.1563 181.1719,850.1563 Q180.7969,850.1563 180.5625,849.9063 Q180.3281,849.6406 180.3281,849.0313 L180.3281,848.1406 L176.3594,848.1406 L176.3594,850.5938 L177.8438,850.5938 Q177.8438,849.9375 177.9688,849.75 Q178.2344,849.3438 178.7031,849.3438 Q179.0781,849.3438 179.3125,849.6094 Q179.5469,849.8594 179.5469,850.4688 L179.5469,852.4375 Q179.5469,852.9844 179.4219,853.1719 Q179.1563,853.5625 178.7031,853.5625 Q178.2344,853.5625 177.9688,853.1563 Q177.8438,852.9688 177.8438,852.2969 L176.3594,852.2969 Z " fill="#000000"/><text fill="#000000" font-family="sans-serif" font-size="14" lengthAdjust="spacing" textLength="97" x="191.5" y="857.2285">EstadoReserva</text><line style="stroke:#000000;stroke-width:0.5;" x1="163.5" x2="290.5" y1="867.5" y2="867.5"/><text fill="#000000" font-family="sans-serif" font-size="14" lengthAdjust="spacing" textLength="76" x="168.5" y="886.0332">PENDIENTE</text><text fill="#000000" font-family="sans-serif" font-size="14" lengthAdjust="spacing" textLength="74" x="168.5" y="903.6426">ACEPTADA</text><text fill="#000000" font-family="sans-serif" font-size="14" lengthAdjust="spacing" textLength="83" x="168.5" y="921.252">RECHAZADA</text><line style="stroke:#000000;stroke-width:0.5;" x1="163.5" x2="290.5" y1="928.3281" y2="928.3281"/></g><g id="elem_GMN67"><path d="M676.5,1161.5 L676.5,1195 L641.68,1199 L676.5,1203 L676.5,1236.9063 A0,0 0 0 0 676.5,1236.9063 L855.5,1236.9063 A0,0 0 0 0 855.5,1236.9063 L855.5,1171.5 L845.5,1161.5 L676.5,1161.5 A0,0 0 0 0 676.5,1161.5 " fill="#FEFFDD" style="stroke:#181818;stroke-width:0.5;"/><path d="M845.5,1161.5 L845.5,1171.5 L855.5,1171.5 L845.5,1161.5 " fill="#FEFFDD" style="stroke:#181818;stroke-width:0.5;"/><text fill="#000000" font-family="sans-serif" font-size="13" lengthAdjust="spacing" textLength="158" x="682.5" y="1179.9951">Un Usuario puede tener rol:</text><text fill="#000000" font-family="sans-serif" font-size="13" lengthAdjust="spacing" textLength="129" x="682.5" y="1196.3467">- CLIENTE (con placa)</text><text fill="#000000" font-family="sans-serif" font-size="13" lengthAdjust="spacing" textLength="114" x="682.5" y="1212.6982">- ADMINISTRADOR</text><text fill="#000000" font-family="sans-serif" font-size="13" lengthAdjust="spacing" textLength="94" x="682.5" y="1229.0498">- SUPERADMIN</text></g><g id="elem_GMN70"><path d="M561,848.5 L561,882 L525.58,886 L561,890 L561,923.9063 A0,0 0 0 0 561,923.9063 L951,923.9063 A0,0 0 0 0 951,923.9063 L951,858.5 L941,848.5 L561,848.5 A0,0 0 0 0 561,848.5 " fill="#FEFFDD" style="stroke:#181818;stroke-width:0.5;"/><path d="M941,848.5 L941,858.5 L951,858.5 L941,848.5 " fill="#FEFFDD" style="stroke:#181818;stroke-width:0.5;"/><text fill="#000000" font-family="sans-serif" font-size="13" lengthAdjust="spacing" textLength="355" x="567" y="866.9951">registradoPor: Usuario que cre&#243; el parqueadero (SuperAdmin)</text><text fill="#000000" font-family="sans-serif" font-size="13" lengthAdjust="spacing" textLength="369" x="567" y="883.3467">idAdministrador: Usuario asignado como admin del parqueadero</text><text fill="#000000" font-family="sans-serif" font-size="13" lengthAdjust="spacing" textLength="251" x="567" y="899.6982">ON DELETE CASCADE para administrador</text><text fill="#000000" font-family="sans-serif" font-size="13" lengthAdjust="spacing" textLength="248" x="567" y="916.0498">ON DELETE SET NULL para registradoPor</text></g><g id="elem_GMN73"><path d="M329,520 L329,545.5 L293.73,549.5 L329,553.5 L329,579.0547 A0,0 0 0 0 329,579.0547 L571,579.0547 A0,0 0 0 0 571,579.0547 L571,530 L561,520 L329,520 A0,0 0 0 0 329,520 " fill="#FEFFDD" style="stroke:#181818;stroke-width:0.5;"/><path d="M561,520 L561,530 L571,530 L561,520 " fill="#FEFFDD" style="stroke:#181818;stroke-width:0.5;"/><text fill="#000000" font-family="sans-serif" font-size="13" lengthAdjust="spacing" textLength="144" x="335" y="538.4951">ON DELETE CASCADE:</text><text fill="#000000" font-family="sans-serif" font-size="13" lengthAdjust="spacing" textLength="221" x="335" y="554.8467">Si se elimina el cliente o parqueadero,</text><text fill="#000000" font-family="sans-serif" font-size="13" lengthAdjust="spacing" textLength="143" x="335" y="571.1982">se eliminan sus reservas</text></g><!--link AdminController to ParqueaderoService--><g id="link_AdminController_ParqueaderoService"><path codeLine="216" d="M2356.43,402.15 C2350.62,406.61 2344.78,410.93 2339,415 C2294.82,446.08 2248.0919,473.1224 2203.9619,496.7024 " fill="none" id="AdminController-to-ParqueaderoService" style="stroke:#181818;stroke-width:1.0;"/><polygon fill="#181818" points="2198.67,499.53,2208.493,498.8165,2203.0799,497.1736,2204.7228,491.7606,2198.67,499.53" style="stroke:#181818;stroke-width:1.0;"/></g><!--link AdminController to ReservaService--><g id="link_AdminController_ReservaService"><path codeLine="217" d="M2490.57,415.28 C2499.49,438.85 2506.657,457.7582 2514.787,479.2482 " fill="none" id="AdminController-to-ReservaService" style="stroke:#181818;stroke-width:1.0;"/><polygon fill="#181818" points="2516.91,484.86,2517.4667,475.0269,2515.1408,480.1835,2509.9842,477.8576,2516.91,484.86" style="stroke:#181818;stroke-width:1.0;"/></g><!--link ClienteController to ZonaService--><g id="link_ClienteController_ZonaService"><path codeLine="218" d="M2162.98,364.1 C2112.07,395.4 2044.68,437.43 1986,476 C1973.22,484.4 1964.6577,490.1359 1951.7277,499.0059 " fill="none" id="ClienteController-to-ZonaService" style="stroke:#181818;stroke-width:1.0;"/><polygon fill="#181818" points="1946.78,502.4,1956.4643,500.6073,1950.9031,499.5716,1951.9388,494.0103,1946.78,502.4" style="stroke:#181818;stroke-width:1.0;"/></g><!--link ClienteController to ReservaService--><g id="link_ClienteController_ReservaService"><path codeLine="219" d="M2291.89,371.05 C2306.47,385.98 2322.85,401.68 2339,415 C2374.26,444.09 2410.9465,469.3412 2447.3165,492.4612 " fill="none" id="ClienteController-to-ReservaService" style="stroke:#181818;stroke-width:1.0;"/><polygon fill="#181818" points="2452.38,495.68,2446.9306,487.4761,2448.1604,492.9976,2442.6388,494.2274,2452.38,495.68" style="stroke:#181818;stroke-width:1.0;"/></g><!--link LoginController to UsuarioService--><g id="link_LoginController_UsuarioService"><path codeLine="220" d="M1562.5,379.53 C1550.41,412.2 1537.8011,446.2925 1525.7011,479.0125 " fill="none" id="LoginController-to-UsuarioService" style="stroke:#181818;stroke-width:1.0;"/><polygon fill="#181818" points="1523.62,484.64,1530.4933,477.5861,1525.3542,479.9504,1522.9899,474.8113,1523.62,484.64" style="stroke:#181818;stroke-width:1.0;"/></g><!--link RegistroController to UsuarioService--><g id="link_RegistroController_UsuarioService"><path codeLine="221" d="M1433.61,371.1 C1446.38,405.21 1460.7065,443.5108 1474.0365,479.1208 " fill="none" id="RegistroController-to-UsuarioService" style="stroke:#181818;stroke-width:1.0;"/><polygon fill="#181818" points="1476.14,484.74,1476.731,474.9089,1474.3871,480.0573,1469.2387,477.7135,1476.14,484.74" style="stroke:#181818;stroke-width:1.0;"/></g><!--link ReservaController to ReservaService--><g id="link_ReservaController_ReservaService"><path codeLine="222" d="M2644.92,379.53 C2624.83,412.2 2603.544,446.8097 2583.414,479.5297 " fill="none" id="ReservaController-to-ReservaService" style="stroke:#181818;stroke-width:1.0;"/><polygon fill="#181818" points="2580.27,484.64,2588.3928,479.0705,2582.89,480.3814,2581.5791,474.8785,2580.27,484.64" style="stroke:#181818;stroke-width:1.0;"/></g><!--link ReservaController to ParqueaderoService--><g id="link_ReservaController_ParqueaderoService"><path codeLine="223" d="M2618.58,379.62 C2602.62,392.71 2584.95,405.41 2567,415 C2448.41,478.35 2302.257,513.5128 2204.687,531.8328 " fill="none" id="ReservaController-to-ParqueaderoService" style="stroke:#181818;stroke-width:1.0;"/><polygon fill="#181818" points="2198.79,532.94,2208.3736,535.2105,2203.7041,532.0173,2206.8973,527.3479,2198.79,532.94" style="stroke:#181818;stroke-width:1.0;"/></g><!--link SuperAdminController to ParqueaderoService--><g id="link_SuperAdminController_ParqueaderoService"><path codeLine="224" d="M1876.1,401.79 C1881.75,406.34 1887.41,410.77 1893,415 C1927.83,441.33 1962.7513,464.6151 1998.3113,486.9851 " fill="none" id="SuperAdminController-to-ParqueaderoService" style="stroke:#181818;stroke-width:1.0;"/><polygon fill="#181818" points="2003.39,490.18,1997.9019,482.0019,1999.1578,487.5176,1993.6421,488.7735,2003.39,490.18" style="stroke:#181818;stroke-width:1.0;"/></g><!--link SuperAdminController to ZonaService--><g id="link_SuperAdminController_ZonaService"><path codeLine="225" d="M1823.69,415.28 C1836.7,445.51 1848.0096,471.8081 1858.7396,496.7581 " fill="none" id="SuperAdminController-to-ZonaService" style="stroke:#181818;stroke-width:1.0;"/><polygon fill="#181818" points="1861.11,502.27,1861.2289,492.4219,1859.1346,497.6768,1853.8797,495.5825,1861.11,502.27" style="stroke:#181818;stroke-width:1.0;"/></g><!--link SuperAdminController to UsuarioService--><g id="link_SuperAdminController_UsuarioService"><path codeLine="226" d="M1685.72,400.04 C1679.74,405.13 1673.8,410.15 1668,415 C1640.25,438.15 1614.1151,459.2068 1586.5151,481.0468 " fill="none" id="SuperAdminController-to-UsuarioService" style="stroke:#181818;stroke-width:1.0;"/><polygon fill="#181818" points="1581.81,484.77,1591.3498,482.322,1585.7309,481.6674,1586.3855,476.0485,1581.81,484.77" style="stroke:#181818;stroke-width:1.0;"/></g><!--link ZonaController to ZonaService--><g id="link_ZonaController_ZonaService"><path codeLine="227" d="M1959.59,371.1 C1941.86,411.12 1920.5698,459.164 1903.8498,496.914 " fill="none" id="ZonaController-to-ZonaService" style="stroke:#181818;stroke-width:1.0;"/><polygon fill="#181818" points="1901.42,502.4,1908.722,495.7909,1903.4448,497.8283,1901.4074,492.5512,1901.42,502.4" style="stroke:#181818;stroke-width:1.0;"/></g><!--link ZonaController to ParqueaderoService--><g id="link_ZonaController_ParqueaderoService"><path codeLine="228" d="M2011.72,371.1 C2027.47,402.39 2044.6721,436.5807 2061.6921,470.3907 " fill="none" id="ZonaController-to-ParqueaderoService" style="stroke:#181818;stroke-width:1.0;"/><polygon fill="#181818" points="2064.39,475.75,2063.9161,465.9126,2062.1418,471.284,2056.7704,469.5097,2064.39,475.75" style="stroke:#181818;stroke-width:1.0;"/></g><!--link ParqueaderoServiceImpl to ParqueaderoService--><g id="link_ParqueaderoServiceImpl_ParqueaderoService"><path codeLine="231" d="M930.19,397.13 C940.62,404.19 951.65,410.39 963,415 C1170.72,499.33 1754.72,413.4 1970,476 C1981.1,479.23 1975.8794,476.1791 1986.8094,481.0691 " fill="none" id="ParqueaderoServiceImpl-to-ParqueaderoService" style="stroke:#181818;stroke-width:1.0;stroke-dasharray:7.0,7.0;"/><polygon fill="none" points="2003.24,488.42,1989.2597,475.5922,1984.3591,486.5459,2003.24,488.42" style="stroke:#181818;stroke-width:1.0;"/></g><!--link ReservaServiceImpl to ReservaService--><g id="link_ReservaServiceImpl_ReservaService"><path codeLine="232" d="M2561.79,90.65 C2639.49,103.88 2747.98,136.18 2801,215 C2850.61,288.76 2847.32,339.14 2801,415 C2763.91,475.74 2706.6105,504.6528 2646.8305,523.2128 " fill="none" id="ReservaServiceImpl-to-ReservaService" style="stroke:#181818;stroke-width:1.0;stroke-dasharray:7.0,7.0;"/><polygon fill="none" points="2629.64,528.55,2648.6096,528.943,2645.0515,517.4826,2629.64,528.55" style="stroke:#181818;stroke-width:1.0;"/></g><!--link UsuarioServiceImpl to UsuarioService--><g id="link_UsuarioServiceImpl_UsuarioService"><path codeLine="233" d="M1108.69,379.72 C1121.24,392.58 1135.3,405.15 1150,415 C1161.15,422.48 1286.8624,469.6733 1386.5624,506.6333 " fill="none" id="UsuarioServiceImpl-to-UsuarioService" style="stroke:#181818;stroke-width:1.0;stroke-dasharray:7.0,7.0;"/><polygon fill="none" points="1403.44,512.89,1388.648,501.0074,1384.4768,512.2591,1403.44,512.89" style="stroke:#181818;stroke-width:1.0;"/></g><!--link ZonaServiceImpl to ZonaService--><g id="link_ZonaServiceImpl_ZonaService"><path codeLine="234" d="M1265.95,362.23 C1280.62,381.35 1299.91,402.04 1322,415 C1436.34,482.11 1485.08,445.06 1614,476 C1680.32,491.92 1737.8904,507.5777 1791.4504,522.7377 " fill="none" id="ZonaServiceImpl-to-ZonaService" style="stroke:#181818;stroke-width:1.0;stroke-dasharray:7.0,7.0;"/><polygon fill="none" points="1808.77,527.64,1793.0845,516.9646,1789.8163,528.5109,1808.77,527.64" style="stroke:#181818;stroke-width:1.0;"/></g><!--link ParqueaderoServiceImpl to ParqueaderoRepository--><g id="link_ParqueaderoServiceImpl_ParqueaderoRepository"><path codeLine="237" d="M795.53,397.32 C775.09,429.01 755.4331,459.4684 736.9531,488.1084 " fill="none" id="ParqueaderoServiceImpl-to-ParqueaderoRepository" style="stroke:#181818;stroke-width:1.0;"/><polygon fill="#181818" points="733.7,493.15,741.9407,487.7564,736.4109,488.9487,735.2186,483.4189,733.7,493.15" style="stroke:#181818;stroke-width:1.0;"/></g><!--link ParqueaderoServiceImpl to ZonaRepository--><g id="link_ParqueaderoServiceImpl_ZonaRepository"><path codeLine="238" d="M927.39,397.32 C968.94,439.88 1013.0284,485.0269 1042.7484,515.4669 " fill="none" id="ParqueaderoServiceImpl-to-ZonaRepository" style="stroke:#181818;stroke-width:1.0;"/><polygon fill="#181818" points="1046.94,519.76,1043.5147,510.526,1043.447,516.1824,1037.7906,516.1147,1046.94,519.76" style="stroke:#181818;stroke-width:1.0;"/></g><!--link ParqueaderoServiceImpl to UsuarioRepository--><g id="link_ParqueaderoServiceImpl_UsuarioRepository"><path codeLine="239" d="M865.83,397.32 C872.78,429.01 879.2849,458.6492 885.5649,487.2892 " fill="none" id="ParqueaderoServiceImpl-to-UsuarioRepository" style="stroke:#181818;stroke-width:1.0;"/><polygon fill="#181818" points="886.85,493.15,888.8295,483.5021,885.7791,488.266,881.0152,485.2156,886.85,493.15" style="stroke:#181818;stroke-width:1.0;"/></g><!--link ReservaServiceImpl to ReservaRepository--><g id="link_ReservaServiceImpl_ReservaRepository"><path codeLine="241" d="M2384.39,83.95 C2075.78,93.16 1049.76,129.64 733,215 C688.35,227.03 646.9824,245.9232 609.4824,265.9532 " fill="none" id="ReservaServiceImpl-to-ReservaRepository" style="stroke:#181818;stroke-width:1.0;"/><polygon fill="#181818" points="604.19,268.78,614.0131,268.068,608.6003,266.4243,610.244,261.0115,604.19,268.78" style="stroke:#181818;stroke-width:1.0;"/></g><!--link ReservaServiceImpl to ParqueaderoService--><g id="link_ReservaServiceImpl_ParqueaderoService"><path codeLine="242" d="M2384.3,92.98 C2308.66,107.72 2203.32,140.93 2146,215 C2088.33,289.5 2084.9899,396.4884 2090.7599,469.8984 " fill="none" id="ReservaServiceImpl-to-ParqueaderoService" style="stroke:#181818;stroke-width:1.0;"/><polygon fill="#181818" points="2091.23,475.88,2094.5125,466.5942,2090.8382,470.8954,2086.5371,467.2211,2091.23,475.88" style="stroke:#181818;stroke-width:1.0;"/></g><!--link ReservaServiceImpl to EmailService--><g id="link_ReservaServiceImpl_EmailService"><path codeLine="243" d="M2561.72,86.57 C2646.26,95.34 2773.57,119.2 2863,184 C2892.15,205.13 2911.1304,234.3866 2925.1404,262.5866 " fill="none" id="ReservaServiceImpl-to-EmailService" style="stroke:#181818;stroke-width:1.0;"/><polygon fill="#181818" points="2927.81,267.96,2927.3879,258.1202,2925.5854,263.4822,2920.2234,261.6796,2927.81,267.96" style="stroke:#181818;stroke-width:1.0;"/></g><!--link UsuarioServiceImpl to UsuarioRepository--><g id="link_UsuarioServiceImpl_UsuarioRepository"><path codeLine="245" d="M1013.82,379.53 C989.61,415.16 963.0716,454.2069 939.8516,488.3869 " fill="none" id="UsuarioServiceImpl-to-UsuarioRepository" style="stroke:#181818;stroke-width:1.0;"/><polygon fill="#181818" points="936.48,493.35,944.8462,488.1532,939.2897,489.2141,938.2287,483.6576,936.48,493.35" style="stroke:#181818;stroke-width:1.0;"/></g><!--link UsuarioServiceImpl to RolRepository--><g id="link_UsuarioServiceImpl_RolRepository"><path codeLine="246" d="M1107.58,379.67 C1127.06,407.64 1147.39,441.84 1159,476 C1179.5,536.36 1180.4087,606.134 1178.9287,646.704 " fill="none" id="UsuarioServiceImpl-to-RolRepository" style="stroke:#181818;stroke-width:1.0;"/><polygon fill="#181818" points="1178.71,652.7,1183.0354,643.8518,1178.8923,647.7033,1175.0408,643.5602,1178.71,652.7" style="stroke:#181818;stroke-width:1.0;"/></g><!--link ZonaServiceImpl to ZonaRepository--><g id="link_ZonaServiceImpl_ZonaRepository"><path codeLine="248" d="M1203.99,362.21 C1171.44,409.23 1125.4253,475.6669 1098.1753,515.0269 " fill="none" id="ZonaServiceImpl-to-ZonaRepository" style="stroke:#181818;stroke-width:1.0;"/><polygon fill="#181818" points="1094.76,519.96,1103.1717,514.8372,1097.6061,515.8491,1096.5942,510.2835,1094.76,519.96" style="stroke:#181818;stroke-width:1.0;"/></g><!--link ParqueaderoRepository to Parqueadero--><g id="link_ParqueaderoRepository_Parqueadero"><path codeLine="251" d="M653.08,605.74 C618.53,648.23 573.2353,703.9248 529.5453,757.6548 " fill="none" id="ParqueaderoRepository-to-Parqueadero" style="stroke:#181818;stroke-width:1.0;stroke-dasharray:7.0,7.0;"/><polygon fill="#181818" points="525.76,762.31,534.5415,757.8507,528.9145,758.4306,528.3345,752.8036,525.76,762.31" style="stroke:#181818;stroke-width:1.0;"/></g><!--link ReservaRepository to Reserva--><g id="link_ReservaRepository_Reserva"><path codeLine="252" d="M462.01,362.21 C411.8,397.37 347.0445,442.7179 291.6045,481.5479 " fill="none" id="ReservaRepository-to-Reserva" style="stroke:#181818;stroke-width:1.0;stroke-dasharray:7.0,7.0;"/><polygon fill="#181818" points="286.69,484.99,296.3564,483.1032,290.7854,482.1216,291.767,476.5506,286.69,484.99" style="stroke:#181818;stroke-width:1.0;"/></g><!--link UsuarioRepository to Usuario--><g id="link_UsuarioRepository_Usuario"><path codeLine="253" d="M930.29,605.7 C980.28,702.06 1063.31,902.79 968,1030 C883.06,1143.35 785.54,1044.37 659,1108 C653.12,1110.95 652.3529,1111.0735 646.6829,1114.7535 " fill="none" id="UsuarioRepository-to-Usuario" style="stroke:#181818;stroke-width:1.0;stroke-dasharray:7.0,7.0;"/><polygon fill="#181818" points="641.65,1118.02,651.377,1116.4755,645.8441,1115.2979,647.0217,1109.765,641.65,1118.02" style="stroke:#181818;stroke-width:1.0;"/></g><!--link ZonaRepository to Zona--><g id="link_ZonaRepository_Zona"><path codeLine="254" d="M1074.16,579 C1071.51,658.5 1061.44,889.19 1030,1078 C1025.89,1102.68 1020.8552,1123.9551 1014.9052,1146.1251 " fill="none" id="ZonaRepository-to-Zona" style="stroke:#181818;stroke-width:1.0;stroke-dasharray:7.0,7.0;"/><polygon fill="#181818" points="1013.35,1151.92,1019.5462,1144.2644,1014.646,1147.0909,1011.8196,1142.1908,1013.35,1151.92" style="stroke:#181818;stroke-width:1.0;"/></g><!--link RolRepository to Rol--><g id="link_RolRepository_Rol"><path codeLine="255" d="M1181.13,712.3 C1192.9,805.33 1217.92,1102.65 1089,1290 C1052.27,1343.37 990.3445,1374.2654 939.3545,1392.6454 " fill="none" id="RolRepository-to-Rol" style="stroke:#181818;stroke-width:1.0;stroke-dasharray:7.0,7.0;"/><polygon fill="#181818" points="933.71,1394.68,943.5332,1395.3911,938.4137,1392.9845,940.8203,1387.8651,933.71,1394.68" style="stroke:#181818;stroke-width:1.0;"/></g><!--link Usuario to Rol--><g id="link_Usuario_Rol"><path codeLine="260" d="M641.59,1276.61 C647.39,1281.26 653.22,1285.76 659,1290 C704.09,1323.07 753.2275,1352.3218 795.0675,1375.6118 " fill="none" id="Usuario-to-Rol" style="stroke:#181818;stroke-width:1.0;"/><polygon fill="#181818" points="800.31,1378.53,794.3917,1370.6577,795.9412,1376.0982,790.5007,1377.6477,800.31,1378.53" style="stroke:#181818;stroke-width:1.0;"/><polygon fill="#000000" points="740.2017,1331.8861,734.1939,1324.5134,731.0077,1329.4528,740.2017,1331.8861" style="stroke:#000000;stroke-width:1.0;"/><text fill="#000000" font-family="sans-serif" font-size="13" lengthAdjust="spacing" textLength="29" x="745" y="1334.4951">idRol</text><text fill="#000000" font-family="sans-serif" font-size="13" lengthAdjust="spacing" textLength="5" x="649.5264" y="1280.5399">*</text><text fill="#000000" font-family="sans-serif" font-size="13" lengthAdjust="spacing" textLength="7" x="785.633" y="1371.1847">1</text></g><!--link Parqueadero to Zona--><g id="link_Parqueadero_Zona"><path codeLine="263" d="M525.55,1017.64 C531.19,1022.11 537.01,1026.26 543,1030 C574.95,1049.97 838.66,1092.49 873,1108 C898.12,1119.35 918.5676,1132.3567 939.8676,1148.2167 " fill="none" id="Parqueadero-to-Zona" style="stroke:#181818;stroke-width:1.0;"/><polygon fill="#181818" points="944.68,1151.8,939.8502,1143.2167,940.6696,1148.8139,935.0724,1149.6333,944.68,1151.8" style="stroke:#181818;stroke-width:1.0;"/><polygon fill="#000000" points="752.7688,1070.6787,745.0254,1065.1569,743.2586,1070.7629,752.7688,1070.6787" style="stroke:#000000;stroke-width:1.0;"/><text fill="#000000" font-family="sans-serif" font-size="13" lengthAdjust="spacing" textLength="38" x="757" y="1074.4951">idZona</text><text fill="#000000" font-family="sans-serif" font-size="13" lengthAdjust="spacing" textLength="5" x="533.3632" y="1024.6291">*</text><text fill="#000000" font-family="sans-serif" font-size="13" lengthAdjust="spacing" textLength="22" x="912.9393" y="1141.2192">0..1</text></g><!--link Parqueadero to Usuario--><g id="link_Parqueadero_Usuario"><path codeLine="266" d="M410.16,1030.11 C412.26,1046.7 416.27,1063.02 423,1078 C434.3,1103.17 449.2612,1121.2728 469.9712,1139.3628 " fill="none" id="Parqueadero-to-Usuario" style="stroke:#181818;stroke-width:1.0;"/><polygon fill="#181818" points="474.49,1143.31,470.3432,1134.3767,470.7243,1140.0207,465.0803,1140.4018,474.49,1143.31" style="stroke:#181818;stroke-width:1.0;"/><polygon fill="#000000" points="430.401,1073.5616,428.6354,1064.2163,423.4796,1067.0389,430.401,1073.5616" style="stroke:#000000;stroke-width:1.0;"/><text fill="#000000" font-family="sans-serif" font-size="13" lengthAdjust="spacing" textLength="77" x="437" y="1074.4951">registradoPor</text><text fill="#000000" font-family="sans-serif" font-size="13" lengthAdjust="spacing" textLength="5" x="404.2717" y="1050.9905">*</text><text fill="#000000" font-family="sans-serif" font-size="13" lengthAdjust="spacing" textLength="22" x="444.368" y="1135.3482">0..1</text></g><!--link Parqueadero to Usuario--><g id="link_Parqueadero_Usuario"><path codeLine="269" d="M506.05,1030.29 C510.66,1040.24 515.03,1050.2 519,1060 C525.16,1075.23 528.9942,1086.0366 533.8842,1102.2166 " fill="none" id="Parqueadero-to-Usuario-1" style="stroke:#181818;stroke-width:1.0;"/><polygon fill="#181818" points="535.62,1107.96,536.8452,1098.1877,534.1735,1103.1738,529.1873,1100.5021,535.62,1107.96" style="stroke:#181818;stroke-width:1.0;"/><polygon fill="#000000" points="531.8045,1073.8388,531.281,1064.3427,525.7993,1066.464,531.8045,1073.8388" style="stroke:#000000;stroke-width:1.0;"/><text fill="#000000" font-family="sans-serif" font-size="13" lengthAdjust="spacing" textLength="90" x="539" y="1074.4951">idAdministrador</text><text fill="#000000" font-family="sans-serif" font-size="13" lengthAdjust="spacing" textLength="22" x="487.3946" y="1051.1793">0..1</text><text fill="#000000" font-family="sans-serif" font-size="13" lengthAdjust="spacing" textLength="22" x="510.8557" y="1097.2692">0..1</text></g><!--link Reserva to Usuario--><g id="link_Reserva_Usuario"><path codeLine="272" d="M145.31,614.14 C120.36,649.57 92.91,695.76 80,742 C45.57,865.28 6,925.56 80,1030 C169.75,1156.68 356.9738,1188.133 468.3138,1195.703 " fill="none" id="Reserva-to-Usuario" style="stroke:#181818;stroke-width:1.0;"/><polygon fill="#181818" points="474.3,1196.11,465.5921,1191.5087,469.3115,1195.7708,465.0494,1199.4903,474.3,1196.11" style="stroke:#181818;stroke-width:1.0;"/><polygon fill="#000000" points="87.4277,890.5468,85.6052,881.2125,80.4667,884.0665,87.4277,890.5468" style="stroke:#000000;stroke-width:1.0;"/><text fill="#000000" font-family="sans-serif" font-size="13" lengthAdjust="spacing" textLength="50" x="94" y="891.4951">idCliente</text><text fill="#000000" font-family="sans-serif" font-size="13" lengthAdjust="spacing" textLength="5" x="134.4923" y="635.5917">*</text><text fill="#000000" font-family="sans-serif" font-size="13" lengthAdjust="spacing" textLength="22" x="444.4577" y="1192.7191">0..1</text></g><!--link Reserva to Parqueadero--><g id="link_Reserva_Parqueadero"><path codeLine="275" d="M239.8,614.2 C264.69,650.41 293.5307,692.3458 324.1607,736.8958 " fill="none" id="Reserva-to-Parqueadero" style="stroke:#181818;stroke-width:1.0;"/><polygon fill="#181818" points="327.56,741.84,325.7571,732.1576,324.7272,737.7199,319.1649,736.69,327.56,741.84" style="stroke:#181818;stroke-width:1.0;"/><polygon fill="#000000" points="312.8328,686.7959,310.1299,677.6775,305.2865,681.0076,312.8328,686.7959" style="stroke:#000000;stroke-width:1.0;"/><text fill="#000000" font-family="sans-serif" font-size="13" lengthAdjust="spacing" textLength="83" x="319" y="687.9951">idParqueadero</text><text fill="#000000" font-family="sans-serif" font-size="13" lengthAdjust="spacing" textLength="5" x="239.3172" y="635.6582">*</text><text fill="#000000" font-family="sans-serif" font-size="13" lengthAdjust="spacing" textLength="22" x="299.575" y="731.0337">0..1</text></g><!--link Reserva to EstadoReserva--><g id="link_Reserva_EstadoReserva"><path codeLine="278" d="M201.9,614.2 C207.86,678.56 216.3961,770.6556 221.8461,829.4356 " fill="none" id="Reserva-to-EstadoReserva" style="stroke:#181818;stroke-width:1.0;"/><polygon fill="#181818" points="222.4,835.41,225.552,826.0791,221.9384,830.4314,217.5862,826.8177,222.4,835.41" style="stroke:#181818;stroke-width:1.0;"/><text fill="#000000" font-family="sans-serif" font-size="13" lengthAdjust="spacing" textLength="39" x="212" y="687.9951">estado</text></g><!--SRC=[xLdDSjis4BxpAJ3EeLPRQMp7oIIQD5EPeXgb-eiavv1B1n9X6LCAK47IhUtcgVe8VR4k-0k0e2qxRIQPqZxOtFsuVrWi5jpmLyfsME0jMWSu37jH9EWgZiXmpTc2tX1qv8G5P8NNlsu4Zvdlye0Bz6JGaxyA8hp4Fl-TiWswm45878MLo4Ut3eAVCrtGgrSkPv7WGK34wzVeYVTqS3Besv4B8gxecaYO-y9xxhwqm-PanqCQSN4jaOE1wvwvTgJ78XfbgC5BzpH5SU4JaNfv5i0hpaV7-GRzKFmWTpfPpgUZaJTVA6GdzRBdRoahVKA6WsaGsWW2yrjCC6ZYcLiPGv0Gdh56R2T_laDR7aO2Ynbc94Zq7BOopYeErrZCqtTdNBZ4ZmDSi8bF8_bUeRFWu7KKuu3UOE65ExocF5HOP1SLGWko8EjBVAFI8Jwfxsv02Ol8_TxVS8OVvtQcGjKwufjz8Xw7CHQKtwKXaLGukXDyJKAJkYO2a0iIKivKA-PaGq48_rSC6N2nXVK3b1BsH3uMbWXaIt6_QbkKQrEnrYOp8zQ2MDDX4U-8-DJzK4sLFUANf4gY7clRf0YYTIk4TCDmQd22yhaec05Gi3XFLOUMxPEnLFy_WEcFsGjxBeWKdwhJgjF2cxyVkju23ITBRpxeoN-LAaKXTyG5x6qqgwX1QesztITcV1KHHbGM59-XRuHDOOVxXNkDjoigQr84vDJ9ql2vbiLMeusKL8t9g66vZomgpLT9GC5C8yjBYywrbBmxZ6MYf8mho1_Vh39PN3EiBEXS2CBloxlIeWzbLbdDoHH8M6XgbSHy6UkpQpmRUMDlikmjXzE9vI2ifjTmkmiincW9NnxUolQe4BCIODBR_rdAcgNsFe-oGbinlBRCaIscWNMtMrEv9baBC_M4h3Mp9eu8YjIziRqdZxKgU9yTjaLkspEraEif4RCAJVaCOgqB9EmAGbTiA3F3vzvikXWkf_FX7eMpD1ePZMU-qIueyy-kirgjako5B-LD-7ObI4tTsrUdBVbJZjP2LAhOllADafGHZSRp3_0mLB2L8bMhJVDSpSSAJbi-g4Z3fR5qsfv0Ij-VfmhrCsON3K7f1axhszdF7pCkIrQZYnPmGMARZBXEFCg9wFPyCdntxdqik73Iuv0mRBwMnCSWxk2QOTAe3quhvWp0dB8AyS3kXlvEhGk582L7x08LmFwnyIbS4k0kmGpw9HTfa3KgL5jwWTy0hulwF5u5HKtCRYHB7k60X8L-WzsduOupkh90Bl6A1bJMo2xSwtX0CCihdmZ6U1UQff20N736AsiXCzLOZBpGRx8z3AU85K5zRQVNBccwkMkMDMLQLu24gN_QML2ycMtr6iligwlP9Jst6sN4nCo9b5qc767nLZSoapNp9lqXR5ilUO9-TRRizNl9mznpt_G-oATgbHxrN6WyOAEhr_7swx93KGg0UGbf0wxQdrXX-e7lLA-u4gISSJK8GunvPvKG_SnsB1TAAygy-bcqsK6M05XlR0_5gi6e1Hbk65SbKuo5RR6eDaFsQLfhsjLEvq-hBaiVc42Do5lwi0HcSR-2KGDmlsjorMiwbnhNZ2Wg_TSTB-X7zbt8IZVXs8AcPAk2h07kjmuIgJQ7ZcqLx1RM0BNsmwcibYKkjUkbhP4qrDAksFlBJaSBW5Fj1YKYh__LNavoCwfZD5wI9KcEtcSbydXGxmmOF_TA5mxFUWkerPAE5kz6BTKda97tN-saVJaSOtQD8ewcZBHoSz71jmT9E0-E3n9KD-rfKDBbgSrAEpsOT2age91qrEc0i0JTpKujcxZSWiFoHFzbnqKBMDC9wdiZR-d1RbkYoVbeT9UcN51Nxmtkr8dL3a5NwVOMRg_l8QJhJ7LPrHeDHweuFt8LfUlqeBAgoxEhthcYjJ3bwoxkBLbzhQkt9gO6lTCfw78tQUr5D-kD78Tni5FGpMM4-4Mn2n0wPuL7kvZu12LNJNdzxJgoat57IMC2iU8ixT9R2RtN7mydmyLotkjFvmbbSJxpvWaP6XqVIOMcMdNp8hDnpCq0XBpn__qN8e7wjG0TbaUfjA7ILUO2qizgFeSho1QU90ZvkYnulPfVSbA3j3pKO7dcfpZDUDDXQA4JVyjMjA9DHdT1KKZo3slIsomV4LTj_HwG9OoXC0xpZokXelX7-3UkZ9oQaTOT8wrcNDMCgvfnLJEk-lpZgcO4rOoW7ZQ2QYPApKJfgveeDSEYBtLOrCo2cbbGCmlwscT1pK3dVp7G-SA7CirWvVCFLhwuuSW-iuk732OUDrhuXE70mpxrF-xpVVEHllb8dt-admMOHUVZ4ReYGdwMHCUTawEJqyxJm-LbZ0PaXOwVeUFJxkbHz-WPSgTB9Dajv_2dsUZg18Ky5j3b-z8t-N4V9BISjnXIQHv3OxA5_aO-7Ix7BGX8JaGUtD44PrkmtddxVfo2q1iUBNOyIi3FJzjdD4Ao045wlHyxVNA1uo22LzVSXyu5rcyvQBzmHfXjOhmXCdKTbuC2STq5G_y1]--></g></svg>